<svg width="32" height="32" viewBox="0 0 32 32" fill="none" xmlns="http://www.w3.org/2000/svg">
<g id="simple-icons:phonepe" clip-path="url(#clip0_129_1316)">
<path id="Vector" d="M13.6079 13.2546H17.5399V19.5106C17.0039 19.7786 16.2892 19.8679 15.7532 19.8679C14.3239 19.8679 13.6079 19.1532 13.6079 17.5439V13.2546ZM31.5679 19.6759C29.5372 28.2746 20.9212 33.5986 12.3239 31.5679C3.72525 29.5386 -1.59875 20.9212 0.431913 12.3239C2.46258 3.72525 11.0786 -1.59875 19.6759 0.431913C28.2746 2.46258 33.5986 11.0786 31.5679 19.6759ZM23.2599 11.8252C23.2544 11.519 23.1303 11.2267 22.9137 11.0101C22.6971 10.7935 22.4049 10.6694 22.0986 10.6639H19.9532L15.0386 5.03458C14.5919 4.49858 13.8772 4.31991 13.1626 4.49858L11.4639 5.03325C11.1959 5.12258 11.1066 5.47991 11.2852 5.65858L16.6466 10.7519H8.51458C8.24658 10.7519 8.06791 10.9306 8.06791 11.1986V12.0919C8.06791 12.7172 8.60391 13.2532 9.22925 13.2532H10.4799V17.5426C10.4799 20.7599 12.1772 22.6359 15.0372 22.6359C15.9306 22.6359 16.6452 22.5466 17.5399 22.1892V25.0492C17.5399 25.8532 18.1652 26.4786 18.9692 26.4786H20.2199C20.359 26.4692 20.4899 26.4097 20.5885 26.3112C20.6871 26.2126 20.7465 26.0817 20.7559 25.9426V13.1652H22.8119C23.0799 13.1652 23.2586 12.9866 23.2586 12.7186L23.2599 11.8252Z" fill="#5517A4"/>
</g>
<defs>
<clipPath id="clip0_129_1316">
<rect width="32" height="32" fill="white"/>
</clipPath>
</defs>
</svg>
