<svg width="28" height="27" viewBox="0 0 28 27" fill="none" xmlns="http://www.w3.org/2000/svg">
<path d="M10.4999 24.75C11.1443 24.75 11.6666 24.2463 11.6666 23.625C11.6666 23.0037 11.1443 22.5 10.4999 22.5C9.85559 22.5 9.33325 23.0037 9.33325 23.625C9.33325 24.2463 9.85559 24.75 10.4999 24.75Z" stroke="black" stroke-width="2" stroke-linecap="round" stroke-linejoin="round"/>
<path d="M23.3334 24.75C23.9777 24.75 24.5001 24.2463 24.5001 23.625C24.5001 23.0037 23.9777 22.5 23.3334 22.5C22.6891 22.5 22.1667 23.0037 22.1667 23.625C22.1667 24.2463 22.6891 24.75 23.3334 24.75Z" stroke="black" stroke-width="2" stroke-linecap="round" stroke-linejoin="round"/>
<path d="M1.16675 1.125H5.83341L8.96008 16.1888C9.06677 16.7067 9.35897 17.172 9.78555 17.5031C10.2121 17.8342 10.7459 18.0101 11.2934 18H22.6334C23.1809 18.0101 23.7147 17.8342 24.1413 17.5031C24.5679 17.172 24.8601 16.7067 24.9667 16.1888L26.8334 6.75H7.00008" stroke="black" stroke-width="2" stroke-linecap="round" stroke-linejoin="round"/>
</svg>
