<?xml version="1.0" encoding="UTF-8"?>
<svg version="1.1" xmlns="http://www.w3.org/2000/svg" width="512" height="512">
<path d="M0 0 C9.80568777 6.08924634 15.62903094 13.58741768 19.3125 24.546875 C21.25541883 35.7496623 20.09582293 46.67354397 13.984375 56.34765625 C8.427605 63.91791174 1.49771017 68.54672552 -7.3203125 71.6640625 C-8.3103125 71.6640625 -9.3003125 71.6640625 -10.3203125 71.6640625 C-10.3203125 78.9240625 -10.3203125 86.1840625 -10.3203125 93.6640625 C-7.0203125 93.6640625 -3.7203125 93.6640625 -0.3203125 93.6640625 C3.15847842 93.97982366 6.55841892 94.58932316 9.9921875 95.2265625 C10.93860107 95.40219727 11.88501465 95.57783203 12.86010742 95.75878906 C40.96189991 101.30412246 65.96018702 114.10971535 87.6796875 132.6640625 C90.81706904 131.27325725 92.93444031 129.65384046 95.34667969 127.22412109 C96.04710388 126.52354584 96.74752808 125.82297058 97.46917725 125.10116577 C98.21411438 124.34590607 98.95905151 123.59064636 99.7265625 122.8125 C100.49776428 122.03846832 101.26896606 121.26443665 102.0635376 120.46694946 C104.52365606 117.99564327 106.97672598 115.51747067 109.4296875 113.0390625 C111.09719644 111.36152198 112.76515982 109.68443305 114.43359375 108.0078125 C118.5209112 103.89845331 122.60246446 99.78343603 126.6796875 95.6640625 C125.72497252 93.25489891 124.77341631 90.86543299 123.6796875 88.515625 C117.69475776 75.18980489 117.49785232 61.09457562 122.3671875 47.4140625 C127.55179563 35.63432786 137.19974965 26.69899077 148.90625 21.671875 C160.74713572 17.36913061 174.05739588 16.64274451 185.94140625 21.34375 C199.53299205 27.89718224 207.94140277 36.66557173 213.6796875 50.6640625 C217.75880798 62.55218418 217.01966686 76.32075231 211.6796875 87.6640625 C205.13449519 100.90936292 195.42774155 108.67758882 181.6796875 113.6640625 C168.47546689 117.47009953 155.94509189 115.19213209 143.6796875 109.6640625 C142.0296875 109.0040625 140.3796875 108.3440625 138.6796875 107.6640625 C126.4696875 119.8740625 114.2596875 132.0840625 101.6796875 144.6640625 C103.35626764 148.85551286 104.05180197 150.37954509 106.9296875 153.41015625 C110.69320522 157.57009004 113.72016055 161.97072284 116.6796875 166.7265625 C117.19877686 167.55945801 117.71786621 168.39235352 118.25268555 169.25048828 C128.67063583 186.24126246 135.49131933 204.76252161 139.1171875 224.3515625 C139.28114014 225.23529541 139.44509277 226.11902832 139.61401367 227.02954102 C140.64665414 233.13822412 140.6796875 238.22565545 140.6796875 244.6640625 C147.9396875 244.6640625 155.1996875 244.6640625 162.6796875 244.6640625 C163.0096875 242.6840625 163.3396875 240.7040625 163.6796875 238.6640625 C168.31428222 227.96884393 175.92232388 220.19562263 186.7421875 215.7890625 C197.12999634 212.75094678 209.13253456 213.6335072 218.6796875 218.6640625 C228.34912898 224.51972776 234.83620331 232.63953694 237.6796875 243.6640625 C239.34356182 255.73273481 237.83331815 266.28069778 230.765625 276.40625 C224.93694777 283.549029 216.92531902 289.06057659 207.6796875 290.6640625 C194.1032323 291.587322 183.63487097 290.07119391 172.91015625 280.94921875 C167.8826438 275.79843979 162.6796875 268.07113607 162.6796875 260.6640625 C155.4196875 260.6640625 148.1596875 260.6640625 140.6796875 260.6640625 C140.6796875 263.9640625 140.6796875 267.2640625 140.6796875 270.6640625 C140.36392634 274.14285342 139.75442684 277.54279392 139.1171875 280.9765625 C138.94155273 281.92297607 138.76591797 282.86938965 138.58496094 283.84448242 C133.03962754 311.94627491 120.23403465 336.94456202 101.6796875 358.6640625 C103.07049275 361.80144404 104.68990954 363.91881531 107.11962891 366.33105469 C107.82020416 367.03147888 108.52077942 367.73190308 109.24258423 368.45355225 C109.99784393 369.19848938 110.75310364 369.94342651 111.53125 370.7109375 C112.30528168 371.48213928 113.07931335 372.25334106 113.87680054 373.0479126 C116.34810673 375.50803106 118.82627933 377.96110098 121.3046875 380.4140625 C122.98222802 382.08157144 124.65931695 383.74953482 126.3359375 385.41796875 C130.44529669 389.5052862 134.56031397 393.58683946 138.6796875 397.6640625 C141.09730992 396.70510474 143.49826904 395.74714502 145.86328125 394.6640625 C157.42895079 389.53267359 169.39956671 388.54843779 181.6796875 391.6640625 C186.21404495 393.64818086 188.81044942 394.9359897 190.6796875 399.6640625 C190.61065701 403.11558688 190.32912068 404.91471652 188.0546875 407.5390625 C182.99519595 409.93566376 178.1402968 408.57473095 172.8671875 407.5390625 C164.11732521 406.00974824 156.09775642 407.71354249 148.6796875 412.6640625 C140.99137836 418.84301034 137.34621878 426.12139296 135.875 435.8046875 C135.24879882 444.97227271 138.1733953 452.42831132 143.6796875 459.6640625 C149.10050865 465.82709877 155.99282079 469.14211598 164.1171875 470.046875 C171.54097874 470.28686825 177.33807152 469.60614811 183.6796875 465.6640625 C184.38867188 465.22835938 185.09765625 464.79265625 185.828125 464.34375 C192.72939914 459.64883116 196.46738357 453.66768649 198.6796875 445.6640625 C198.95697142 442.27602921 198.95697142 442.27602921 198.8671875 438.7890625 C198.85429687 437.56574219 198.84140625 436.34242188 198.828125 435.08203125 C198.70924067 432.34456319 198.45371041 429.79377946 197.9921875 427.1015625 C197.63237889 423.1436678 198.19279845 421.70359356 200.6796875 418.6640625 C203.56830459 417.21975395 205.47616451 417.28717744 208.6796875 417.6640625 C213.25561594 421.09600883 214.42996418 424.20067027 215.6796875 429.6640625 C217.33074768 445.0770015 214.30215531 458.27322597 204.6796875 470.6640625 C196.21854961 480.05267127 184.29645928 486.27405663 171.6015625 487 C156.47508528 487.32622572 143.54500577 483.44455282 132.3671875 472.7890625 C123.32569724 463.14723184 118.53364424 450.95399904 118.6796875 437.6640625 C119.24503194 429.50694991 121.1862947 422.61386162 124.65625 415.22265625 C125.92728128 412.50435967 125.92728128 412.50435967 125.6796875 408.6640625 C124.31596739 406.72059301 124.31596739 406.72059301 122.375 404.90527344 C121.65425293 404.18482849 120.93350586 403.46438354 120.19091797 402.72210693 C119.40346191 401.95529602 118.61600586 401.18848511 117.8046875 400.3984375 C117.00562988 399.60503967 116.20657227 398.81164185 115.38330078 397.99420166 C112.82464627 395.45796848 110.25244601 392.93597977 107.6796875 390.4140625 C105.94440348 388.69883583 104.21001659 386.98270103 102.4765625 385.265625 C98.22129808 381.05450448 93.95482401 376.85500219 89.6796875 372.6640625 C86.11505426 374.01991984 83.70546271 375.28188003 80.93359375 377.9140625 C76.77365996 381.67758022 72.37302716 384.70453555 67.6171875 387.6640625 C66.36784424 388.44269653 66.36784424 388.44269653 65.09326172 389.23706055 C48.10248754 399.65501083 29.58122839 406.47569433 9.9921875 410.1015625 C9.10845459 410.26551514 8.22472168 410.42946777 7.31420898 410.59838867 C1.20552588 411.63102914 -3.88190545 411.6640625 -10.3203125 411.6640625 C-10.3203125 418.9240625 -10.3203125 426.1840625 -10.3203125 433.6640625 C-8.3403125 433.9940625 -6.3603125 434.3240625 -4.3203125 434.6640625 C6.37490607 439.29865722 14.14812737 446.90669888 18.5546875 457.7265625 C21.59280322 468.11437134 20.7102428 480.11690956 15.6796875 489.6640625 C9.82402224 499.33350398 1.70421306 505.82057831 -9.3203125 508.6640625 C-21.38898481 510.32793682 -31.93694778 508.81769315 -42.0625 501.75 C-49.205279 495.92132277 -54.71682659 487.90969402 -56.3203125 478.6640625 C-57.243572 465.0876073 -55.72744391 454.61924597 -46.60546875 443.89453125 C-41.45468979 438.8670188 -33.72738607 433.6640625 -26.3203125 433.6640625 C-26.3203125 426.4040625 -26.3203125 419.1440625 -26.3203125 411.6640625 C-29.6203125 411.6640625 -32.9203125 411.6640625 -36.3203125 411.6640625 C-39.79910342 411.34830134 -43.19904392 410.73880184 -46.6328125 410.1015625 C-47.57922607 409.92592773 -48.52563965 409.75029297 -49.50073242 409.56933594 C-77.60252491 404.02400254 -102.60081202 391.21840965 -124.3203125 372.6640625 C-127.45769404 374.05486775 -129.57506531 375.67428454 -131.98730469 378.10400391 C-132.68772888 378.80457916 -133.38815308 379.50515442 -134.10980225 380.22695923 C-134.85473938 380.98221893 -135.59967651 381.73747864 -136.3671875 382.515625 C-137.13838928 383.28965668 -137.90959106 384.06368835 -138.7041626 384.86117554 C-141.16428106 387.33248173 -143.61735098 389.81065433 -146.0703125 392.2890625 C-147.73782144 393.96660302 -149.40578482 395.64369195 -151.07421875 397.3203125 C-155.1615362 401.42967169 -159.24308946 405.54468897 -163.3203125 409.6640625 C-162.36559752 412.07322609 -161.41404131 414.46269201 -160.3203125 416.8125 C-154.82070023 429.05773043 -153.93871746 442.39045471 -158.140625 455.15625 C-159.07407805 457.42320741 -160.12392508 459.52482671 -161.3203125 461.6640625 C-161.73023438 462.40140625 -162.14015625 463.13875 -162.5625 463.8984375 C-170.16065825 476.34739734 -181.34964793 483.2641877 -195.3203125 486.6640625 C-210.61578012 487.96644885 -223.99281904 485.3719636 -236.3203125 475.6640625 C-245.29988625 467.55750287 -251.99222362 455.70071061 -252.65625 443.46484375 C-252.96834402 427.96303083 -249.40845931 414.85211847 -238.4453125 403.3515625 C-228.80348184 394.31007224 -216.61024904 389.51801924 -203.3203125 389.6640625 C-195.16319991 390.22940694 -188.27011162 392.1706697 -180.87890625 395.640625 C-178.16060967 396.91165628 -178.16060967 396.91165628 -174.3203125 396.6640625 C-172.37684301 395.30034239 -172.37684301 395.30034239 -170.56152344 393.359375 C-169.84107849 392.63862793 -169.12063354 391.91788086 -168.37835693 391.17529297 C-167.61154602 390.38783691 -166.84473511 389.60038086 -166.0546875 388.7890625 C-164.86459076 387.59047607 -164.86459076 387.59047607 -163.65045166 386.36767578 C-161.11421848 383.80902127 -158.59222977 381.23682101 -156.0703125 378.6640625 C-154.35508583 376.92877848 -152.63895103 375.19439159 -150.921875 373.4609375 C-146.71075448 369.20567308 -142.51125219 364.93919901 -138.3203125 360.6640625 C-139.67616984 357.09942926 -140.93813003 354.68983771 -143.5703125 351.91796875 C-147.33383022 347.75803496 -150.36078555 343.35740216 -153.3203125 338.6015625 C-154.09894653 337.35221924 -154.09894653 337.35221924 -154.89331055 336.07763672 C-165.31126083 319.08686254 -172.13194433 300.56560339 -175.7578125 280.9765625 C-176.00374146 279.65096313 -176.00374146 279.65096313 -176.25463867 278.29858398 C-177.28727914 272.18990088 -177.3203125 267.10246955 -177.3203125 260.6640625 C-184.5803125 260.6640625 -191.8403125 260.6640625 -199.3203125 260.6640625 C-199.6503125 262.6440625 -199.9803125 264.6240625 -200.3203125 266.6640625 C-204.95490722 277.35928107 -212.56294888 285.13250237 -223.3828125 289.5390625 C-233.77062134 292.57717822 -245.77315956 291.6946178 -255.3203125 286.6640625 C-264.98975398 280.80839724 -271.47682831 272.68858806 -274.3203125 261.6640625 C-275.98418682 249.59539019 -274.47394315 239.04742722 -267.40625 228.921875 C-261.57757277 221.779096 -253.56594402 216.26754841 -244.3203125 214.6640625 C-230.7438573 213.740803 -220.27549597 215.25693109 -209.55078125 224.37890625 C-204.5232688 229.52968521 -199.3203125 237.25698893 -199.3203125 244.6640625 C-192.0603125 244.6640625 -184.8003125 244.6640625 -177.3203125 244.6640625 C-177.3203125 241.3640625 -177.3203125 238.0640625 -177.3203125 234.6640625 C-177.00455134 231.18527158 -176.39505184 227.78533108 -175.7578125 224.3515625 C-175.58217773 223.40514893 -175.40654297 222.45873535 -175.22558594 221.48364258 C-169.68025254 193.38185009 -156.87465965 168.38356298 -138.3203125 146.6640625 C-139.71111775 143.52668096 -141.33053454 141.40930969 -143.76025391 138.99707031 C-144.46082916 138.29664612 -145.16140442 137.59622192 -145.88320923 136.87457275 C-146.63846893 136.12963562 -147.39372864 135.38469849 -148.171875 134.6171875 C-148.94590668 133.84598572 -149.71993835 133.07478394 -150.51742554 132.2802124 C-152.98873173 129.82009394 -155.46690433 127.36702402 -157.9453125 124.9140625 C-159.62285302 123.24655356 -161.29994195 121.57859018 -162.9765625 119.91015625 C-167.08592169 115.8228388 -171.20093897 111.74128554 -175.3203125 107.6640625 C-177.73793492 108.62302026 -180.13889404 109.58097998 -182.50390625 110.6640625 C-195.86642136 116.59266539 -209.87898012 116.88712707 -223.6328125 111.9765625 C-235.37147479 106.7508405 -244.29233936 97.12780414 -249.3125 85.4375 C-253.61524439 73.59661428 -254.34163049 60.28635412 -249.640625 48.40234375 C-243.1035615 34.84470613 -234.33116912 26.33093617 -220.3203125 20.6640625 C-216.53842662 19.43787728 -214.17111454 19.27565287 -210.4453125 20.9765625 C-208.3203125 22.6640625 -208.3203125 22.6640625 -207.3203125 24.6640625 C-206.93175449 28.16108455 -207.0515663 30.15100158 -208.6953125 33.2890625 C-211.85239931 36.14547437 -214.83926832 37.12409251 -218.7890625 38.58203125 C-225.65248536 41.51593269 -230.0856186 47.07352512 -233.3203125 53.6640625 C-236.48230815 61.69664094 -236.70025909 70.88103461 -233.7578125 79.0390625 C-229.14545866 88.77448065 -222.3244449 93.87977682 -212.3203125 97.6640625 C-204.21937785 99.87222049 -196.0448463 98.26395555 -188.6328125 94.5390625 C-180.95419848 89.8993346 -176.0751662 83.13823204 -173.3203125 74.6640625 C-171.39430711 66.13461008 -172.67530338 58.06982816 -176.9453125 50.4140625 C-179.64814184 46.2230086 -182.78734963 43.12637213 -186.68359375 40.0390625 C-189.25762658 37.87662919 -189.31702066 36.69961432 -189.6328125 33.2890625 C-189.3203125 29.6640625 -189.3203125 29.6640625 -187.8203125 27.2265625 C-185.05736039 25.49971743 -182.88029275 24.78756915 -179.59765625 24.96484375 C-171.18055341 27.54916864 -164.40065777 37.26301071 -160.3203125 44.6640625 C-154.7533003 57.32562073 -153.8785373 70.33873689 -158.27734375 83.53515625 C-159.23285074 85.94360646 -160.25582886 88.30223942 -161.3203125 90.6640625 C-161.9803125 92.3140625 -162.6403125 93.9640625 -163.3203125 95.6640625 C-145.0053125 113.9790625 -145.0053125 113.9790625 -126.3203125 132.6640625 C-122.12886214 130.98748236 -120.60482991 130.29194803 -117.57421875 127.4140625 C-113.41428496 123.65054478 -109.01365216 120.62358945 -104.2578125 117.6640625 C-103.42491699 117.14497314 -102.59202148 116.62588379 -101.73388672 116.09106445 C-84.74311254 105.67311417 -66.22185339 98.85243067 -46.6328125 95.2265625 C-45.30721313 94.98063354 -45.30721313 94.98063354 -43.95483398 94.72973633 C-37.84615088 93.69709586 -32.75871955 93.6640625 -26.3203125 93.6640625 C-26.3203125 86.4040625 -26.3203125 79.1440625 -26.3203125 71.6640625 C-29.2903125 71.1690625 -29.2903125 71.1690625 -32.3203125 70.6640625 C-43.01553107 66.02946778 -50.78875237 58.42142612 -55.1953125 47.6015625 C-58.23342822 37.21375366 -57.3508678 25.21121544 -52.3203125 15.6640625 C-41.43514294 -2.31058349 -19.14594259 -9.49341752 0 0 Z M-37.09375 21.78515625 C-40.80122634 27.46444326 -41.15196228 33.06394832 -40.3203125 39.6640625 C-38.21674127 46.79169706 -34.71280898 50.8064665 -28.40625 54.60546875 C-23.00165966 57.34824775 -16.85677487 57.78985675 -11.0625 55.9453125 C-4.60915754 52.90267195 -0.05186121 48.46088216 2.94921875 41.96875 C4.80385493 36.11722408 4.60078764 29.97460523 2.1171875 24.3515625 C-1.19959563 18.62364269 -6.04487323 14.70636522 -12.3203125 12.6640625 C-23.02875283 11.39381992 -30.20603384 13.49296165 -37.09375 21.78515625 Z M141.6796875 46.6640625 C136.21156999 55.10747924 133.74509299 62.72547 135.3046875 72.6640625 C137.27922249 81.09833448 141.73672264 88.4176868 148.6796875 93.6640625 C157.60602211 98.88461577 166.00492914 100.88642432 176.1328125 98.51171875 C185.2498007 95.47738372 192.1612832 89.65683421 196.99609375 81.421875 C200.56986398 73.82605674 201.14334809 65.16512392 198.984375 57.05078125 C198.04672176 54.76968367 196.97999983 52.75833501 195.6796875 50.6640625 C195.25558594 49.96667969 194.83148438 49.26929688 194.39453125 48.55078125 C189.57812267 41.42678973 182.95564448 36.92862784 174.6796875 34.6640625 C161.22493491 33.2930806 150.60704453 36.18634385 141.6796875 46.6640625 Z M-121.5703125 152.4765625 C-148.93850609 180.17705119 -162.49441704 217.81841073 -162.35546875 256.4296875 C-161.37284615 295.23057399 -143.71269879 331.8716346 -115.828125 358.5 C-87.84370356 384.26217583 -50.96403673 397.54994759 -13.03051758 396.64257812 C26.07839208 394.90894742 62.66450611 377.16665171 89.10058594 348.45019531 C114.36957168 319.86826896 127.36048627 282.59850768 125.5546875 244.4765625 C122.94343947 205.69517716 104.76277814 169.37612241 75.6796875 143.6640625 C17.01092109 94.13848047 -67.22127847 99.49118862 -121.5703125 152.4765625 Z M-255.09375 239.78515625 C-258.9844463 245.74510823 -259.03051645 251.75081137 -258.3203125 258.6640625 C-256.60141995 264.85001712 -252.63821505 269.19250034 -247.3203125 272.6640625 C-241.2380211 275.546712 -235.04264078 275.7626293 -228.59375 273.859375 C-222.05318018 270.9941707 -218.52645658 266.98170433 -215.3203125 260.6640625 C-213.40308703 254.9123861 -213.39930681 248.88411893 -216.0078125 243.3515625 C-219.5915919 237.1455055 -224.46874864 232.83565986 -231.3203125 230.6640625 C-241.53888246 229.18937092 -248.57032737 231.93153851 -255.09375 239.78515625 Z M182.7578125 237.89453125 C178.2958126 244.40692634 176.83858444 249.79040334 177.6796875 257.6640625 C179.8494514 264.47995127 184.1545522 269.37434039 190.3046875 272.9765625 C195.96093644 275.59124361 201.98878137 275.73766514 207.94921875 274.00390625 C213.81314019 271.41391418 218.04070664 267.05428318 220.8203125 261.3046875 C222.78822707 255.25782272 222.73939251 248.12993976 220.1171875 242.2890625 C216.76781572 236.58800414 211.92782066 232.73739197 205.6796875 230.6640625 C196.98768344 229.39564409 188.67202725 231.03067633 182.7578125 237.89453125 Z M-229.1953125 417.4140625 C-235.32481053 425.09404821 -237.02030935 432.57332613 -236.703125 442.33203125 C-236.15743689 447.08174515 -234.8291252 450.62338908 -232.3203125 454.6640625 C-231.89621094 455.36144531 -231.47210938 456.05882812 -231.03515625 456.77734375 C-226.21874767 463.90133527 -219.59626948 468.39949716 -211.3203125 470.6640625 C-200.0994614 471.80741937 -191.42387777 470.23512961 -182.5703125 463.1640625 C-176.21082281 457.10901647 -171.63604013 448.7664897 -171.21875 439.875 C-171.70080842 429.38095895 -175.51615553 420.45653532 -183.2421875 413.234375 C-198.14668595 401.97195324 -216.45204791 403.99151941 -229.1953125 417.4140625 Z M-35.24609375 455.89453125 C-39.93484255 462.75420432 -41.1131406 468.39599807 -40.3203125 476.6640625 C-38.57103621 482.83921854 -34.63854461 487.1922852 -29.3203125 490.6640625 C-23.29395737 493.57746598 -16.41141217 493.80085725 -9.97265625 492.01171875 C-4.1579466 489.40126143 0.09537558 485.00690621 2.81640625 479.265625 C4.93225838 472.88934662 4.42344071 466.47221638 1.7421875 460.3515625 C-1.61709782 454.30677402 -6.8394644 450.8243452 -13.3203125 448.6640625 C-21.73210194 447.58364918 -29.53061297 449.27477562 -35.24609375 455.89453125 Z " fill="#000000" transform="translate(274.3203125,3.3359375)"/>
<path d="M0 0 C13.63869734 10.71082481 22.01013371 23.5228945 24.4375 40.875 C26.41142787 58.17491939 21.07850416 73.07637933 11 87 C10.028121 88.02735155 9.0385655 89.0401137 8 90 C8.88300781 90.09796875 9.76601563 90.1959375 10.67578125 90.296875 C25.90161406 92.19397125 38.99095552 96.8547326 49 109 C57.22605542 120.65196555 59.1485294 131.77252359 59.203125 145.78515625 C59.20882507 146.91900253 59.21452515 148.05284882 59.22039795 149.22105408 C59.22982193 151.61228509 59.23637156 154.00352893 59.24023438 156.39477539 C59.24997504 160.05312535 59.28103779 163.71092151 59.3125 167.36914062 C59.31902724 169.69530917 59.3242788 172.02148172 59.328125 174.34765625 C59.3404718 175.44046402 59.3528186 176.53327179 59.36553955 177.65919495 C59.33712842 187.3280835 59.33712842 187.3280835 56 191 C52.52978971 192.15673676 49.79146938 192.14832989 46.12939453 192.17700195 C45.43473083 192.18357315 44.74006714 192.19014435 44.02435303 192.19691467 C41.72717172 192.21661394 39.43005562 192.2283016 37.1328125 192.23828125 C35.95478373 192.24439454 35.95478373 192.24439454 34.75295639 192.25063133 C30.59751398 192.27147595 26.44210445 192.28578558 22.28662109 192.29516602 C17.9968882 192.30623774 13.70767299 192.34065052 9.41812325 192.38033772 C6.1169641 192.40648835 2.81592875 192.41485635 -0.48532486 192.41844749 C-2.06656523 192.42331613 -3.64779997 192.43493813 -5.22893906 192.45348549 C-7.44324536 192.47784929 -9.65620601 192.47691805 -11.87060547 192.4699707 C-13.12952606 192.47583694 -14.38844666 192.48170319 -15.68551636 192.48774719 C-19.58643286 191.9137027 -21.23977762 190.7627369 -24 188 C-24.62890625 186 -24.62890625 186 -24.5625 184 C-24.56378906 183.34 -24.56507813 182.68 -24.56640625 182 C-23.67920538 178.86726313 -22.72190586 177.84452991 -20 176 C-16.57032839 175.51042702 -13.20529761 175.62417684 -9.75 175.75 C-8.81414062 175.76804687 -7.87828125 175.78609375 -6.9140625 175.8046875 C-4.60832985 175.85174327 -2.30469055 175.91746287 0 176 C-0.02320313 175.11957031 -0.04640625 174.23914063 -0.0703125 173.33203125 C-0.08835937 172.17058594 -0.10640625 171.00914062 -0.125 169.8125 C-0.14820313 168.66394531 -0.17140625 167.51539063 -0.1953125 166.33203125 C-0.00153592 163.02620285 0.44207495 160.90434372 2 158 C5.7205836 155.51961093 7.59796571 155.53662797 12 156 C14.20703125 157.5078125 14.20703125 157.5078125 16 160 C16.29362904 162.92454522 16.38195943 165.35506708 16.25 168.25 C16.1675 170.8075 16.085 173.365 16 176 C24.91 176 33.82 176 43 176 C42.92563799 170.34335914 42.84248421 164.68819566 42.73754883 159.03222656 C42.70449254 157.11205963 42.67640188 155.19180003 42.65356445 153.27148438 C42.61966059 150.49569561 42.56733091 147.72074148 42.51171875 144.9453125 C42.50213387 143.67749435 42.50213387 143.67749435 42.49235535 142.38406372 C42.25619202 132.59953674 39.83444838 124.1900871 33 117 C25.0801125 109.63149707 16.59347763 107.54195233 5.97314453 107.59594727 C5.01414246 107.58908401 4.05514038 107.58222076 3.06707764 107.57514954 C-0.07783148 107.55696851 -3.22223752 107.56070697 -6.3671875 107.56640625 C-8.56999878 107.56184002 -10.77280864 107.55653313 -12.97561646 107.55052185 C-17.58357545 107.54160758 -22.19136098 107.54399444 -26.79931641 107.55395508 C-32.6823447 107.56543743 -38.56477208 107.54523537 -44.44772148 107.51603794 C-48.99471798 107.49762434 -53.54157189 107.49797879 -58.08859634 107.50367546 C-60.25656095 107.50382807 -62.42453559 107.49783406 -64.59246445 107.48538399 C-85.01670939 107.34363452 -85.01670939 107.34363452 -102.0546875 117.71484375 C-108.93875234 125.80154642 -110.12035354 134.23919425 -110.31640625 144.45703125 C-110.33718735 145.35999435 -110.35796844 146.26295746 -110.37937927 147.19328308 C-110.4445528 150.06628097 -110.50360955 152.93936714 -110.5625 155.8125 C-110.60571586 157.76498294 -110.64933112 159.71745708 -110.69335938 161.66992188 C-110.80094968 166.44652556 -110.90026229 171.2232001 -111 176 C-102.09 176 -93.18 176 -84 176 C-84.15762578 170.91367316 -84.15762578 170.91367316 -84.36035156 165.82910156 C-84.41480728 162.34217899 -84.26504888 160.36703508 -82.203125 157.51171875 C-79.00706859 155.31868005 -76.78710868 155.52661141 -73 156 C-70.5499118 157.2895201 -69.33399389 158.05695843 -68.40234375 160.6875 C-67.87223593 163.73433328 -67.90659261 166.65926083 -67.9375 169.75 C-67.94652344 170.92046875 -67.95554688 172.0909375 -67.96484375 173.296875 C-67.97644531 174.18890625 -67.98804688 175.0809375 -68 176 C-67.41508789 175.97905273 -66.83017578 175.95810547 -66.22753906 175.93652344 C-63.56853535 175.85319885 -60.90980645 175.80129103 -58.25 175.75 C-57.32960938 175.71648437 -56.40921875 175.68296875 -55.4609375 175.6484375 C-48.66414711 175.54993329 -48.66414711 175.54993329 -45.39453125 177.765625 C-43.94940182 180.08107048 -43.43221787 181.29554733 -43.4375 184 C-43.41558594 184.66 -43.39367187 185.32 -43.37109375 186 C-44.36743755 189.16849704 -46.26533793 190.20499009 -49 192 C-52.30102539 192.50120544 -52.30102539 192.50120544 -56.09765625 192.50170898 C-57.14008987 192.50981346 -57.14008987 192.50981346 -58.20358276 192.51808167 C-60.49032788 192.53054237 -62.7758073 192.51409735 -65.0625 192.49609375 C-66.65763413 192.4962488 -68.25276865 192.49773881 -69.84790039 192.50050354 C-73.18685615 192.50188633 -76.52538172 192.48935002 -79.86425781 192.46655273 C-84.13822611 192.43816813 -88.41147992 192.44090686 -92.6855011 192.45364285 C-95.97812981 192.46060706 -99.27059418 192.45280233 -102.5632019 192.44038582 C-104.13881805 192.43587851 -105.71445187 192.43552822 -107.29006958 192.43945122 C-109.49452711 192.44237082 -111.69800964 192.42582232 -113.90234375 192.40405273 C-115.15523193 192.39864975 -116.40812012 192.39324677 -117.69897461 192.38768005 C-121.27709275 191.96745759 -123.17864755 191.21331426 -126 189 C-126.97786306 186.06641082 -127.13742966 184.13448988 -127.16113281 181.07641602 C-127.17074036 180.07429581 -127.1803479 179.0721756 -127.19024658 178.03968811 C-127.19449646 176.9553801 -127.19874634 175.87107208 -127.203125 174.75390625 C-127.20882507 173.63241684 -127.21452515 172.51092743 -127.22039795 171.35545349 C-127.22985404 168.97566675 -127.23638434 166.59586687 -127.24023438 164.21606445 C-127.24987839 160.60799569 -127.28087097 157.00051166 -127.3125 153.39257812 C-127.31903649 151.0755242 -127.32428442 148.75846621 -127.328125 146.44140625 C-127.3404718 145.37531631 -127.3528186 144.30922638 -127.36553955 143.21083069 C-127.32168449 128.15228156 -122.91995682 115.32596512 -112.52734375 104.328125 C-101.5808275 94.2444717 -90.28877347 91.58143977 -76 90 C-76.51949219 89.39414063 -77.03898437 88.78828125 -77.57421875 88.1640625 C-88.30868008 75.26683539 -93.78347029 61.27626016 -92.78515625 44.359375 C-90.92984613 27.18450413 -83.95003709 13.00111987 -70.5703125 1.8125 C-49.5226747 -13.02960325 -21.62962681 -14.99911621 0 0 Z M-68.46484375 22.75 C-75.74140626 33.41488552 -77.08078157 44.42229406 -76 57 C-73.67579441 68.03665626 -67.14611126 77.49717976 -58 84 C-47.42194078 90.35020434 -36.9846896 92.69401069 -24.7265625 90.3828125 C-12.84880273 87.19472021 -3.51270631 80.47001831 3 70 C8.46556787 59.60372106 9.74417305 48.28233032 7.31640625 36.75390625 C3.29864913 25.00071632 -3.99134911 15.97886082 -15 10.1875 C-34.1006925 1.36286395 -55.02804952 6.48607886 -68.46484375 22.75 Z " fill="#000000" transform="translate(290,157)"/>
</svg>
