<?xml version="1.0" encoding="UTF-8"?>
<svg version="1.1" xmlns="http://www.w3.org/2000/svg" width="512" height="512">
<path d="M0 0 C1.10794922 -0.01260864 2.21589844 -0.02521729 3.35742188 -0.03820801 C4.54916016 -0.03011108 5.74089844 -0.02201416 6.96875 -0.01367188 C8.19658203 -0.01749878 9.42441406 -0.02132568 10.68945312 -0.02526855 C13.28516459 -0.02799029 15.88090336 -0.02061099 18.4765625 -0.00390625 C22.45374599 0.01749738 26.42912282 -0.0037015 30.40625 -0.02929688 C32.92708733 -0.02665365 35.44792353 -0.02152878 37.96875 -0.01367188 C39.16048828 -0.0217688 40.35222656 -0.02986572 41.58007812 -0.03820801 C43.24200195 -0.01929504 43.24200195 -0.01929504 44.9375 0 C45.91138672 0.00318237 46.88527344 0.00636475 47.88867188 0.00964355 C51.23366811 0.66816595 52.42612486 1.82749785 54.46875 4.51757812 C54.7593624 7.41207762 54.85061045 9.89707748 54.71875 12.76757812 C54.70070313 13.51265625 54.68265625 14.25773437 54.6640625 15.02539062 C54.61710649 16.85667514 54.54536652 18.68729461 54.46875 20.51757812 C55.685625 20.72382813 56.9025 20.93007813 58.15625 21.14257812 C63.62682748 22.33899602 68.43038628 24.6536343 73.453125 27.08007812 C76.09423484 28.33905277 78.739682 29.46638156 81.46875 30.51757812 C81.99984375 29.96328125 82.5309375 29.40898438 83.078125 28.83789062 C83.78453125 28.1134375 84.4909375 27.38898437 85.21875 26.64257812 C85.91484375 25.92328125 86.6109375 25.20398438 87.328125 24.46289062 C90.17931924 21.87184185 92.46184523 20.72353592 96.21875 19.95507812 C99.78529747 20.57236519 100.60885524 21.24456507 103.21508789 23.60424805 C103.91900665 24.24107513 104.62292542 24.87790222 105.34817505 25.5340271 C108.55079076 28.5297013 111.68171612 31.58748917 114.77734375 34.69335938 C115.75562889 35.67020943 115.75562889 35.67020943 116.75367737 36.66679382 C118.11525136 38.02769348 119.47558824 39.38983192 120.8347168 40.75317383 C122.92187274 42.84574137 125.01438632 44.93284637 127.10742188 47.01953125 C128.43521705 48.34798632 129.76270247 49.67675106 131.08984375 51.00585938 C131.71579941 51.6297908 132.34175507 52.25372223 132.98667908 52.89656067 C139.08640719 59.02974358 139.08640719 59.02974358 139.09765625 64.37304688 C137.87832153 68.53090252 134.50164684 71.34937525 131.53515625 74.38085938 C129.43122662 76.3423619 129.43122662 76.3423619 128.46875 78.51757812 C129.56490926 81.04591804 129.56490926 81.04591804 131.15625 83.89257812 C138.46875 98.00621449 138.46875 98.00621449 138.46875 104.51757812 C139.57734375 104.47117187 140.6859375 104.42476563 141.828125 104.37695312 C143.29163968 104.33942711 144.75518356 104.30302783 146.21875 104.26757812 C146.94835937 104.2340625 147.67796875 104.20054688 148.4296875 104.16601562 C151.96644484 104.10171095 154.05289827 104.22570703 156.984375 106.28320312 C158.46875 108.51757813 158.46875 108.51757813 158.46875 112.51757812 C159.24025391 112.50869568 160.01175781 112.49981323 160.80664062 112.49066162 C168.10332078 112.41027037 175.39978399 112.34949002 182.6967926 112.31032944 C186.44763189 112.28951915 190.19810302 112.26132346 193.94873047 112.21582031 C197.57327862 112.17212562 201.19747427 112.14839177 204.82226562 112.13806915 C206.20008894 112.13071981 207.57789455 112.11636866 208.95556641 112.0946579 C218.08413399 111.95661726 224.61348865 112.26288046 231.7109375 118.48242188 C232.51917969 119.45888672 232.51917969 119.45888672 233.34375 120.45507812 C233.89804687 121.10347656 234.45234375 121.751875 235.0234375 122.41992188 C237.73265083 126.3519423 238.71899001 129.86764207 238.71484566 134.61500263 C238.71882775 135.6246924 238.72280985 136.63438218 238.72691262 137.67466861 C238.72108693 138.77680656 238.71526125 139.87894452 238.70925903 141.01448059 C238.71182231 142.77885807 238.71182231 142.77885807 238.71443737 144.57887954 C238.71716162 147.83989374 238.71091266 151.10074889 238.70088124 154.36174428 C238.6922434 157.87975328 238.69516714 161.39775487 238.69668579 164.91577148 C238.69773443 171.00968495 238.69146002 177.10355558 238.68021011 183.19745827 C238.66395524 192.00820952 238.65874712 200.81894006 238.65623413 209.62970468 C238.65185701 223.92461629 238.63854744 238.21950508 238.61962891 252.5144043 C238.60127055 266.40047084 238.58711383 280.28653119 238.57861328 294.17260742 C238.57808783 295.02856154 238.57756239 295.88451565 238.57702102 296.76640777 C238.57441094 301.060483 238.57188353 305.35455829 238.56939721 309.6486336 C238.54866418 345.27163138 238.51343817 380.89460265 238.46875 416.51757812 C239.49935547 416.50017578 240.52996094 416.48277344 241.59179688 416.46484375 C242.95702716 416.45076921 244.32226187 416.43711973 245.6875 416.42382812 C246.36522461 416.41125977 247.04294922 416.39869141 247.74121094 416.38574219 C254.58224144 416.33580766 258.5374464 417.72057728 263.4296875 422.38867188 C270.54231492 430.06740637 270.84163696 436.83486466 270.83935547 446.96240234 C270.84369589 449.1157338 270.87995492 451.26695691 270.91796875 453.41992188 C271.02290738 466.12346327 268.42270717 476.13808636 259.46875 485.51757812 C248.35322102 496.12881089 236.39368256 497.10789089 221.74365234 497.0255127 C219.95182985 497.03012691 218.16001115 497.03648331 216.3682003 497.04442167 C211.46590293 497.0610666 206.56391841 497.05289064 201.66162014 497.0404768 C196.36637222 497.03140881 191.07117726 497.04540471 185.77593994 497.05639648 C175.41105417 497.0741676 165.04628438 497.07034796 154.6813941 497.05874592 C146.25639743 497.04970635 137.83143323 497.04848987 129.40643311 497.05284119 C128.20659267 497.05345412 127.00675223 497.05406705 125.77055299 497.05469856 C123.3329749 497.05597748 120.89539682 497.05727433 118.45781875 497.05858892 C95.60946809 497.0699906 72.76118168 497.05688746 49.91284156 497.03538746 C30.31490908 497.01751687 10.71707139 497.02062109 -8.88085938 497.0390625 C-31.64837135 497.06047646 -54.41582706 497.068892 -77.1833477 497.05661345 C-79.61187616 497.05533927 -82.04040463 497.05408179 -84.46893311 497.05284119 C-86.26117984 497.05191553 -86.26117984 497.05191553 -88.08963358 497.05097118 C-96.50290506 497.04751987 -104.9161408 497.05334193 -113.32940674 497.0627594 C-123.58467311 497.07398658 -133.83981704 497.07092412 -144.09506941 497.04963642 C-149.32581539 497.03913579 -154.55635735 497.03498748 -159.78710175 497.04823303 C-164.57874281 497.06018301 -169.36999138 497.05355135 -174.16159701 497.03232282 C-175.8915966 497.02786781 -177.62162959 497.03009818 -179.35160756 497.03982598 C-193.14619861 497.11142223 -204.18715325 495.39237748 -214.53125 485.51757812 C-224.02314536 475.57458279 -226.21320244 464.79731581 -226.05273438 451.45532227 C-226.03116771 449.32193802 -226.05269671 447.1918802 -226.078125 445.05859375 C-226.09752631 436.26819982 -225.52851215 430.07906614 -219.56640625 423.27539062 C-218.58994141 422.46714844 -218.58994141 422.46714844 -217.59375 421.64257812 C-216.94535156 421.08828125 -216.29695313 420.53398437 -215.62890625 419.96289062 C-210.80382712 416.63834821 -206.45997489 416.24973425 -200.71875 416.39257812 C-200.02587891 416.40160156 -199.33300781 416.410625 -198.61914062 416.41992188 C-196.92302605 416.44331656 -195.22709129 416.47918172 -193.53125 416.51757812 C-193.53276888 415.9133326 -193.53428776 415.30908707 -193.53585267 414.68653107 C-193.62537246 378.87097356 -193.69400001 343.05543531 -193.73551132 307.23978919 C-193.74051412 302.93899338 -193.74569141 298.63819781 -193.75097656 294.33740234 C-193.7520258 293.48119439 -193.75307505 292.62498643 -193.75415608 291.74283278 C-193.77155949 277.88073607 -193.80309683 264.01870574 -193.83986118 250.1566484 C-193.8772724 235.93201781 -193.89948623 221.70742198 -193.90760398 207.48274422 C-193.91309138 198.70592046 -193.93042043 189.92928433 -193.96291587 181.15251833 C-193.98406598 175.13327775 -193.99044893 169.11413411 -193.98525551 163.09485906 C-193.98269448 159.62243239 -193.98660958 156.1503335 -194.0080719 152.67796516 C-194.02796049 148.91012962 -194.02319208 145.14309813 -194.01226807 141.37524414 C-194.02391943 140.28184471 -194.0355708 139.18844528 -194.04757524 138.06191254 C-193.98794172 130.45693046 -192.71471622 125.15040041 -187.56640625 119.27539062 C-186.91542969 118.7365625 -186.26445312 118.19773437 -185.59375 117.64257812 C-184.94535156 117.08828125 -184.29695313 116.53398438 -183.62890625 115.96289062 C-179.23188491 112.93328561 -175.4732262 112.26931369 -170.18041992 112.29052734 C-168.28902534 112.29075394 -168.28902534 112.29075394 -166.35942078 112.29098511 C-164.99351848 112.30119676 -163.62761781 112.31162873 -162.26171875 112.32226562 C-160.85639141 112.32599872 -159.45106147 112.32884429 -158.04573059 112.33084106 C-154.35825332 112.33845424 -150.67093518 112.3580826 -146.98352051 112.38024902 C-143.21624911 112.40075753 -139.44895184 112.40985346 -135.68164062 112.41992188 C-128.29810477 112.44133088 -120.91469974 112.47543858 -113.53125 112.51757812 C-113.428125 111.56882812 -113.325 110.62007813 -113.21875 109.64257812 C-112.53125 106.51757812 -112.53125 106.51757812 -109.53125 104.51757812 C-106.76469676 104.37511915 -104.10471694 104.32988368 -101.34375 104.39257812 C-100.59416016 104.40160156 -99.84457031 104.410625 -99.07226562 104.41992188 C-97.22512346 104.44345235 -95.37814588 104.47932251 -93.53125 104.51757812 C-93.325 103.30070312 -93.11875 102.08382812 -92.90625 100.83007812 C-91.7098321 95.35950064 -89.39519382 90.55594184 -86.96875 85.53320312 C-85.70977536 82.89209328 -84.58244656 80.24664613 -83.53125 77.51757812 C-84.08554688 76.98648438 -84.63984375 76.45539063 -85.2109375 75.90820312 C-86.29761719 74.84859375 -86.29761719 74.84859375 -87.40625 73.76757812 C-88.48519531 72.7234375 -88.48519531 72.7234375 -89.5859375 71.65820312 C-92.17698628 68.80700889 -93.32529221 66.5244829 -94.09375 62.76757812 C-93.47646294 59.20103065 -92.80426305 58.37747289 -90.44458008 55.77124023 C-89.80775299 55.06732147 -89.1709259 54.36340271 -88.51480103 53.63815308 C-85.51912682 50.43553737 -82.46133895 47.304612 -79.35546875 44.20898438 C-78.3786187 43.23069923 -78.3786187 43.23069923 -77.3820343 42.23265076 C-76.02113465 40.87107677 -74.6589962 39.51073989 -73.2956543 38.15161133 C-71.20308675 36.06445539 -69.11598176 33.9719418 -67.02929688 31.87890625 C-65.70084181 30.55111108 -64.37207707 29.22362565 -63.04296875 27.89648438 C-62.41903732 27.27052872 -61.7951059 26.64457306 -61.15226746 25.99964905 C-55.01908455 19.89992093 -55.01908455 19.89992093 -49.67578125 19.88867188 C-45.5179256 21.10800659 -42.69945288 24.48468128 -39.66796875 27.45117188 C-37.70646623 29.5551015 -37.70646623 29.5551015 -35.53125 30.51757812 C-33.00291008 29.42141886 -33.00291008 29.42141886 -30.15625 27.83007812 C-16.04261364 20.51757812 -16.04261364 20.51757812 -9.53125 20.51757812 C-9.57765625 19.40898437 -9.6240625 18.30039062 -9.671875 17.15820312 C-9.70940102 15.69468845 -9.74580029 14.23114457 -9.78125 12.76757812 C-9.81476563 12.03796875 -9.84828125 11.30835938 -9.8828125 10.55664062 C-9.94434074 7.17258725 -9.93477875 5.04901422 -7.85253906 2.3067627 C-5.00442347 0.11151499 -3.56539393 0.01165065 0 0 Z M6.46875 16.51757812 C6.13875 21.46757812 5.80875 26.41757812 5.46875 31.51757812 C2.05599947 34.93032865 -0.72198333 35.57173854 -5.21875 36.70507812 C-14.31226086 39.16710669 -22.26315818 43.07458217 -30.53125 47.51757812 C-34.48867805 49.63738306 -36.95561073 50.20392402 -41.53125 49.51757812 C-43.79882854 47.84607262 -45.75117917 46.04788952 -47.734375 44.04882812 C-49.51834057 42.19327388 -49.51834057 42.19327388 -52.53125 42.51757812 C-54.82856411 44.39705169 -54.82856411 44.39705169 -57.19921875 46.89257812 C-58.09189453 47.79492188 -58.98457031 48.69726562 -59.90429688 49.62695312 C-60.84261157 50.59033542 -61.7807605 51.5538792 -62.71875 52.51757812 C-63.66792769 53.48180158 -64.61778956 54.44535205 -65.56835938 55.40820312 C-67.89615319 57.77144558 -70.21668133 60.14139295 -72.53125 62.51757812 C-72.12132812 62.98808594 -71.71140625 63.45859375 -71.2890625 63.94335938 C-70.75023437 64.56597656 -70.21140625 65.18859375 -69.65625 65.83007812 C-69.12257812 66.44496094 -68.58890625 67.05984375 -68.0390625 67.69335938 C-64.60146632 71.85231642 -64.02616723 74.14686468 -64.53125 79.51757812 C-65.65253494 81.94513157 -66.77551486 84.06781104 -68.15625 86.33007812 C-72.61826143 94.10331942 -75.29321633 102.13979339 -77.94042969 110.66699219 C-79.93822674 116.92455487 -79.93822674 116.92455487 -82.53125 119.51757812 C-87.48125 119.84757812 -92.43125 120.17757812 -97.53125 120.51757812 C-97.53125 131.07757813 -97.53125 141.63757813 -97.53125 152.51757812 C-92.58125 152.84757813 -87.63125 153.17757812 -82.53125 153.51757812 C-79.11849947 156.93032865 -78.47708959 159.70831145 -77.34375 164.20507812 C-74.88172143 173.29858899 -70.97424596 181.24948631 -66.53125 189.51757812 C-64.41144506 193.47500617 -63.84490411 195.94193886 -64.53125 200.51757812 C-66.2027555 202.78515666 -68.0009386 204.73750729 -70 206.72070312 C-71.85555425 208.50466869 -71.85555425 208.50466869 -71.53125 211.51757812 C-69.65177643 213.81489223 -69.65177643 213.81489223 -67.15625 216.18554688 C-65.80273438 217.52456055 -65.80273438 217.52456055 -64.421875 218.890625 C-63.4584927 219.8289397 -62.49494892 220.76708862 -61.53125 221.70507812 C-60.56702654 222.65425581 -59.60347608 223.60411769 -58.640625 224.5546875 C-56.27738254 226.88248132 -53.90743518 229.20300945 -51.53125 231.51757812 C-51.06074219 231.10765625 -50.59023437 230.69773438 -50.10546875 230.27539062 C-49.48285156 229.7365625 -48.86023438 229.19773438 -48.21875 228.64257812 C-47.60386719 228.10890625 -46.98898438 227.57523438 -46.35546875 227.02539062 C-42.19651171 223.58779444 -39.90196344 223.01249536 -34.53125 223.51757812 C-32.10369655 224.63886307 -29.98101708 225.76184298 -27.71875 227.14257812 C-19.9455087 231.60458956 -11.90903474 234.27954445 -3.38183594 236.92675781 C2.87572674 238.92455487 2.87572674 238.92455487 5.46875 241.51757812 C5.96375 248.94257813 5.96375 248.94257813 6.46875 256.51757812 C17.02875 256.51757812 27.58875 256.51757812 38.46875 256.51757812 C38.79875 251.56757813 39.12875 246.61757812 39.46875 241.51757812 C42.33788035 238.64844777 42.92049503 238.13254501 46.5390625 237.22851562 C47.74816284 236.90584717 47.74816284 236.90584717 48.98168945 236.57666016 C49.84366943 236.35091309 50.70564941 236.12516602 51.59375 235.89257812 C59.64163481 233.66919554 66.66847237 230.72051673 73.82275391 226.41357422 C78.17942795 223.86644424 81.27806009 222.76458863 86.46875 223.51757812 C88.796875 225.04882813 88.796875 225.04882813 90.71875 227.01757812 C92.59719852 228.96587252 92.59719852 228.96587252 94.46875 230.51757812 C97.56113361 230.83996272 97.56113361 230.83996272 99.64526367 228.68164062 C100.87853394 227.42480469 100.87853394 227.42480469 102.13671875 226.14257812 C103.47573242 224.7890625 103.47573242 224.7890625 104.84179688 223.40820312 C105.78011157 222.44482083 106.7182605 221.48127705 107.65625 220.51757812 C108.60542769 219.55335467 109.55528956 218.5898042 110.50585938 217.62695312 C112.83365319 215.26371067 115.15418133 212.8937633 117.46875 210.51757812 C117.05882812 210.04707031 116.64890625 209.5765625 116.2265625 209.09179688 C115.68773437 208.46917969 115.14890625 207.8465625 114.59375 207.20507812 C113.79324219 206.28275391 113.79324219 206.28275391 112.9765625 205.34179688 C109.53896632 201.18283983 108.96366723 198.88829157 109.46875 193.51757812 C110.59003494 191.09002468 111.71301486 188.96734521 113.09375 186.70507812 C117.55576143 178.93183683 120.23071633 170.89536286 122.87792969 162.36816406 C124.87572674 156.11060138 124.87572674 156.11060138 127.46875 153.51757812 C132.41875 153.18757812 137.36875 152.85757813 142.46875 152.51757812 C142.46875 141.95757812 142.46875 131.39757812 142.46875 120.51757812 C137.51875 120.18757813 132.56875 119.85757813 127.46875 119.51757812 C124.05599947 116.1048276 123.41458959 113.3268448 122.28125 108.83007812 C119.81922143 99.73656726 115.91174596 91.78566994 111.46875 83.51757812 C109.34894506 79.56015008 108.78240411 77.09321739 109.46875 72.51757812 C111.1402555 70.24999959 112.9384386 68.29764896 114.9375 66.31445312 C116.79305425 64.53048756 116.79305425 64.53048756 116.46875 61.51757812 C114.58927643 59.22026402 114.58927643 59.22026402 112.09375 56.84960938 C111.19140625 55.95693359 110.2890625 55.06425781 109.359375 54.14453125 C108.3959927 53.20621655 107.43244892 52.26806763 106.46875 51.33007812 C105.50452654 50.38090044 104.54097608 49.43103856 103.578125 48.48046875 C101.21488254 46.15267493 98.84493518 43.8321468 96.46875 41.51757812 C95.99824219 41.9275 95.52773438 42.33742188 95.04296875 42.75976562 C94.10904297 43.56800781 94.10904297 43.56800781 93.15625 44.39257812 C92.54136719 44.92625 91.92648437 45.45992187 91.29296875 46.00976562 C88.53439069 48.28987511 86.86816751 49.469901 83.26171875 49.90039062 C78.56426729 49.42629151 75.76138535 47.78865578 71.78125 45.39257812 C64.44040727 41.20369841 57.14518508 38.59646364 48.98168945 36.45849609 C47.77258911 36.13582764 47.77258911 36.13582764 46.5390625 35.80664062 C45.82508301 35.6282666 45.11110352 35.44989258 44.37548828 35.26611328 C42.46875 34.51757812 42.46875 34.51757812 39.46875 31.51757812 C39.13875 26.56757812 38.80875 21.61757813 38.46875 16.51757812 C27.90875 16.51757812 17.34875 16.51757812 6.46875 16.51757812 Z M-175.53125 131.51757812 C-177.21427987 134.94441411 -177.78074319 137.7089332 -177.77734566 141.50568104 C-177.7813274 142.49129457 -177.78530914 143.47690811 -177.78941154 144.49238873 C-177.78358622 145.56698251 -177.77776089 146.64157629 -177.77175903 147.74873352 C-177.77347107 148.89363251 -177.77518311 150.03853149 -177.77694702 151.21812439 C-177.7796811 154.39800876 -177.77340966 157.5777303 -177.76339546 160.75759543 C-177.75466246 164.23856162 -177.75758466 167.71952158 -177.7590313 171.20049572 C-177.76009468 177.95776195 -177.75085939 184.71497504 -177.73802864 191.47222761 C-177.72363161 199.28825302 -177.7220393 207.10424649 -177.72045898 214.92028809 C-177.70995726 235.55689319 -177.68203504 256.19348646 -177.65625 276.83007812 C-177.615 322.92695313 -177.57375 369.02382813 -177.53125 416.51757812 C-45.53125 416.51757812 86.46875 416.51757812 222.46875 416.51757812 C222.530625 370.44132812 222.5925 324.36507812 222.65625 276.89257812 C222.68356201 262.3292334 222.71087402 247.76588867 222.73901367 232.76123047 C222.74904528 219.73774826 222.74904528 219.73774826 222.75508118 206.71426392 C222.75788276 200.90115739 222.76890403 195.08813701 222.78547668 189.27505493 C222.80455547 182.573023 222.81326188 175.87107391 222.80908485 169.16901461 C222.80727539 165.73965719 222.81017013 162.310485 222.82639539 158.88116145 C222.84125913 155.21028468 222.83774134 151.53987495 222.82951355 147.86898804 C222.83825154 146.79730692 222.84698954 145.7256258 222.85599232 144.6214695 C222.82317793 139.19543044 222.63682632 135.15434417 219.46875 130.51757812 C215.92865224 128.45067665 212.80676232 128.27225978 208.76049805 128.29052734 C207.07932137 128.29075394 207.07932137 128.29075394 205.36418152 128.29098511 C203.5654937 128.30646896 203.5654937 128.30646896 201.73046875 128.32226562 C200.49456497 128.32509552 199.25866119 128.32792542 197.98530579 128.33084106 C194.71210003 128.34012595 191.43909356 128.3580718 188.16595459 128.38024902 C184.82094152 128.40076995 181.47591974 128.40968545 178.13085938 128.41992188 C171.5767352 128.44196021 165.02278125 128.47647909 158.46875 128.51757812 C158.46875 133.79757813 158.46875 139.07757813 158.46875 144.51757812 C159.78593018 144.53216064 161.10311035 144.54674316 162.46020508 144.56176758 C167.34134238 144.61968526 172.22201518 144.69691848 177.1027832 144.7800293 C179.21631336 144.8133094 181.32993306 144.84133165 183.44360352 144.86401367 C186.47971806 144.89750285 189.51500975 144.94981577 192.55078125 145.00585938 C193.49774368 145.0122493 194.44470612 145.01863922 195.42036438 145.02522278 C196.30105087 145.04501694 197.18173737 145.0648111 198.08911133 145.08520508 C198.86410477 145.09630814 199.63909821 145.10741119 200.43757629 145.11885071 C203.04481298 145.63066156 203.81758533 146.46084819 205.46875 148.51757812 C205.84479749 150.47690487 205.84479749 150.47690487 205.84627342 152.75144958 C205.85409666 153.61945474 205.86191991 154.48745989 205.86998022 155.38176823 C205.86328805 156.33593852 205.85659589 157.29010881 205.84970093 158.27319336 C205.8543809 159.28636092 205.85906087 160.29952848 205.86388266 161.34339809 C205.87589395 164.75445399 205.86635136 168.16511266 205.85693359 171.57617188 C205.86099656 174.01506791 205.86633689 176.4539621 205.87286377 178.89285278 C205.88515031 184.83918457 205.88331463 190.78535919 205.87462585 196.73168492 C205.86785746 201.5633101 205.86692891 206.39490343 205.8701973 211.22653198 C205.870657 211.91354893 205.87111669 212.60056588 205.87159032 213.30840153 C205.87254948 214.70395574 205.87352212 216.09950994 205.8745081 217.49506414 C205.88306778 230.58876704 205.87321881 243.68240699 205.857107 256.77609956 C205.84370328 268.01710572 205.84603121 279.25801895 205.85986328 290.49902344 C205.8759089 303.54508145 205.88224376 316.59108426 205.87302649 329.63715076 C205.87207082 331.02764192 205.87112771 332.41813309 205.8701973 333.80862427 C205.86973447 334.49281651 205.86927164 335.17700876 205.86879479 335.88193411 C205.86620184 340.70913448 205.87058245 345.53629991 205.87763596 350.36349487 C205.8869163 356.85757447 205.88033241 363.35150529 205.86295319 369.84557724 C205.85897409 372.23412661 205.86014653 374.62269071 205.86674118 377.01123428 C205.87489052 380.26167974 205.86471505 383.51155421 205.84970093 386.76196289 C205.85639309 387.71613318 205.86308526 388.67030348 205.86998022 389.65338802 C205.86215697 390.52139318 205.85433373 391.38939833 205.84627342 392.28370667 C205.84554284 393.4096063 205.84554284 393.4096063 205.84479749 394.55825138 C205.34109597 397.18269612 204.67901776 398.0137064 202.46875 399.51757812 C199.79127598 399.89362562 199.79127598 399.89362562 196.48573303 399.89510155 C195.22758758 399.90292479 193.96944212 399.91074803 192.67317104 399.91880834 C191.26917329 399.91232156 189.86517682 399.90555156 188.46118164 399.89852905 C186.97579892 399.90198358 185.49041875 399.90674675 184.00504398 399.91271079 C179.912978 399.92527878 175.82112088 399.91902421 171.72905397 399.90975213 C167.31999551 399.90298561 162.91097385 399.91343092 158.50192261 399.92169189 C149.86051185 399.93505712 141.21917909 399.9321391 132.57776523 399.92345397 C125.55697408 399.91668878 118.53620485 399.91575565 111.51541138 399.91902542 C110.51755397 399.91948512 109.51969656 399.91994482 108.49160105 399.92041845 C106.46470284 399.92137759 104.43780463 399.92235023 102.41090643 399.92333622 C83.38847733 399.93189829 64.36609154 399.92204319 45.34366953 399.90593512 C29.00871372 399.8925312 12.67382185 399.89485907 -3.66113281 399.90869141 C-22.61380982 399.92473282 -41.56644882 399.93107424 -60.51913166 399.92185462 C-62.53872489 399.92089893 -64.55831813 399.91995582 -66.57791138 399.91902542 C-68.06857027 399.91833118 -68.06857027 399.91833118 -69.58934349 399.91762292 C-76.60464604 399.9150287 -83.61992456 399.91941329 -90.63522339 399.92646408 C-99.18031644 399.93486332 -107.72532677 399.93263226 -116.2704103 399.91662185 C-120.6332732 399.90871782 -124.99599802 399.90568364 -129.35886002 399.91556931 C-133.34850612 399.92447283 -137.33788543 399.91965566 -141.32750714 399.90363665 C-142.77496867 399.90027032 -144.22245248 399.90202417 -145.66989982 399.90926401 C-147.629329 399.91831702 -149.58882082 399.90728532 -151.54823303 399.89510155 C-153.18447679 399.89437096 -153.18447679 399.89437096 -154.85377598 399.89362562 C-157.53125 399.51757812 -157.53125 399.51757812 -159.38159335 398.25859988 C-160.80608874 396.10136671 -160.9071015 394.86028975 -160.90877342 392.28370667 C-160.91659666 391.41570151 -160.92441991 390.54769636 -160.93248022 389.65338802 C-160.92578805 388.69921773 -160.91909589 387.74504744 -160.91220093 386.76196289 C-160.9168809 385.74879533 -160.92156087 384.73562777 -160.92638266 383.69175816 C-160.93839395 380.28070226 -160.92885136 376.87004359 -160.91943359 373.45898438 C-160.92349656 371.02008834 -160.92883689 368.58119415 -160.93536377 366.14230347 C-160.94765031 360.19597168 -160.94581463 354.24979706 -160.93712585 348.30347133 C-160.93035746 343.47184615 -160.92942891 338.64025282 -160.9326973 333.80862427 C-160.933157 333.12160732 -160.93361669 332.43459037 -160.93409032 331.72675472 C-160.93504948 330.33120051 -160.93602212 328.93564631 -160.9370081 327.54009211 C-160.94556778 314.44638921 -160.93571881 301.35274926 -160.919607 288.25905669 C-160.90620328 277.01805053 -160.90853121 265.7771373 -160.92236328 254.53613281 C-160.9384089 241.4900748 -160.94474376 228.44407199 -160.93552649 215.39800549 C-160.93457082 214.00751433 -160.93362771 212.61702316 -160.9326973 211.22653198 C-160.93223447 210.54233974 -160.93177164 209.85814749 -160.93129479 209.15322214 C-160.92870184 204.32602177 -160.93308245 199.49885634 -160.94013596 194.67166138 C-160.9494163 188.17758178 -160.94283241 181.68365096 -160.92545319 175.18957901 C-160.92147409 172.80102964 -160.92264653 170.41246554 -160.92924118 168.02392197 C-160.93739052 164.77347651 -160.92721505 161.52360204 -160.91220093 158.27319336 C-160.91889309 157.31902307 -160.92558526 156.36485277 -160.93248022 155.38176823 C-160.92465697 154.51376307 -160.91683373 153.64575792 -160.90877342 152.75144958 C-160.90828637 152.00084983 -160.90779931 151.25025007 -160.90729749 150.47690487 C-160.42594114 147.96888557 -159.51531128 147.07713435 -157.53125 145.51757812 C-155.50007629 145.11885071 -155.50007629 145.11885071 -153.15161133 145.08520508 C-152.27092484 145.06541092 -151.39023834 145.04561676 -150.48286438 145.02522278 C-149.53590195 145.01883286 -148.58893951 145.01244293 -147.61328125 145.00585938 C-146.64090012 144.98790817 -145.66851898 144.96995697 -144.66667175 144.95146179 C-141.55907536 144.89725345 -138.45163348 144.86342915 -135.34375 144.83007812 C-133.23760866 144.79691437 -131.13148773 144.7624256 -129.02539062 144.7265625 C-123.86078839 144.64152081 -118.69623281 144.57475972 -113.53125 144.51757812 C-113.53125 139.23757812 -113.53125 133.95757812 -113.53125 128.51757812 C-121.39662618 128.4433621 -129.26179802 128.38894376 -137.12744141 128.3527832 C-139.80274721 128.33940262 -142.47757149 128.31724428 -145.15283203 128.29125977 C-149.00038751 128.25482729 -152.84761586 128.23783984 -156.6953125 128.22460938 C-157.88927643 128.20912552 -159.08324036 128.19364166 -160.31338501 128.1776886 C-168.41425162 128.04237759 -168.41425162 128.04237759 -175.53125 131.51757812 Z M-145.53125 160.51757812 C-145.53125 234.43757813 -145.53125 308.35757813 -145.53125 384.51757812 C-34.65125 384.51757812 76.22875 384.51757812 190.46875 384.51757812 C190.46875 310.59757812 190.46875 236.67757812 190.46875 160.51757812 C179.90875 160.51757812 169.34875 160.51757812 158.46875 160.51757812 C157.80875 162.49757812 157.14875 164.47757813 156.46875 166.51757812 C153.297012 168.10344712 149.83361178 167.89624257 146.34375 168.08007812 C145.21259766 168.14485352 145.21259766 168.14485352 144.05859375 168.2109375 C142.19553112 168.31706132 140.33216476 168.41782813 138.46875 168.51757812 C138.09363281 169.54496094 137.71851563 170.57234375 137.33203125 171.63085938 C134.34343528 179.74696767 131.20749547 187.70922475 127.46875 195.51757812 C128.02304687 196.04867187 128.57734375 196.57976562 129.1484375 197.12695312 C129.87289063 197.83335937 130.59734375 198.53976563 131.34375 199.26757812 C132.06304687 199.96367187 132.78234375 200.65976563 133.5234375 201.37695312 C136.11448628 204.22814736 137.26279221 206.51067335 138.03125 210.26757812 C136.44697972 219.42113974 124.08994051 228.04734844 117.66040039 234.45629883 C115.64025943 236.47102584 113.62558617 238.49111197 111.61132812 240.51171875 C110.32844599 241.79394103 109.04525419 243.07585357 107.76171875 244.35742188 C107.1596611 244.96150375 106.55760345 245.56558563 105.93730164 246.18797302 C99.95624275 252.13523603 99.95624275 252.13523603 94.61328125 252.14648438 C90.4554256 250.92714966 87.63695288 247.55047497 84.60546875 244.58398438 C82.64396623 242.48005475 82.64396623 242.48005475 80.46875 241.51757812 C78.0080898 242.57976499 78.0080898 242.57976499 75.21875 244.14257812 C68.48594861 247.63971283 61.65048218 250.11658482 54.46875 252.51757812 C54.43136719 253.63777344 54.39398438 254.75796875 54.35546875 255.91210938 C54.28980743 257.38479903 54.22336014 258.85745378 54.15625 260.33007812 C54.12241211 261.43706055 54.12241211 261.43706055 54.08789062 262.56640625 C53.81654493 268.01798786 53.81654493 268.01798786 52.27636719 270.2303772 C49.78800589 272.00233477 48.07669776 271.89834745 45.03515625 271.90576172 C43.92390381 271.9152182 42.81265137 271.92467468 41.66772461 271.93441772 C40.46768799 271.92834503 39.26765137 271.92227234 38.03125 271.91601562 C36.79963135 271.9188858 35.5680127 271.92175598 34.29907227 271.92471313 C31.02527043 271.9272797 27.75189463 271.91519422 24.47814941 271.8984375 C22.47064615 271.89258365 20.46353631 271.89841608 18.45605469 271.90869141 C14.60593305 271.92718793 10.75639566 271.92498805 6.90625 271.91601562 C5.70621338 271.92208832 4.50617676 271.92816101 3.26977539 271.93441772 C1.60289673 271.920233 1.60289673 271.920233 -0.09765625 271.90576172 C-1.07677979 271.90337494 -2.05590332 271.90098816 -3.06469727 271.89852905 C-5.53125 271.51757812 -5.53125 271.51757812 -7.33886719 270.2303772 C-9.38882932 267.28570775 -9.11253499 263.80482639 -9.21875 260.33007812 C-9.25291016 259.58048828 -9.28707031 258.83089844 -9.32226562 258.05859375 C-9.40459294 256.21210975 -9.46960281 254.36486819 -9.53125 252.51757812 C-10.55863281 252.14246094 -11.58601562 251.76734375 -12.64453125 251.38085938 C-20.76063955 248.3922634 -28.72289662 245.2563236 -36.53125 241.51757812 C-37.06234375 242.071875 -37.5934375 242.62617188 -38.140625 243.19726562 C-39.20023438 244.28394531 -39.20023438 244.28394531 -40.28125 245.39257812 C-41.32539063 246.47152344 -41.32539063 246.47152344 -42.390625 247.57226562 C-45.24181924 250.1633144 -47.52434523 251.31162033 -51.28125 252.08007812 C-60.43481161 250.49580785 -69.06102032 238.13876864 -75.4699707 231.70922852 C-77.48469771 229.68908756 -79.50478385 227.67441429 -81.52539062 225.66015625 C-82.8076129 224.37727411 -84.08952545 223.09408231 -85.37109375 221.81054688 C-85.97517563 221.20848923 -86.57925751 220.60643158 -87.2016449 219.98612976 C-92.31984774 214.83884226 -92.31984774 214.83884226 -93.03125 210.39257812 C-92.40883874 205.56889085 -90.66056232 203.81420779 -87.35546875 200.41210938 C-85.56189845 198.54940789 -84.04145607 196.61327948 -82.53125 194.51757812 C-82.90636719 193.81375 -83.28148437 193.10992187 -83.66796875 192.38476562 C-87.70135764 184.60245859 -90.75807117 176.8125732 -93.53125 168.51757812 C-94.65144531 168.48019531 -95.77164063 168.4428125 -96.92578125 168.40429688 C-98.3984709 168.33863555 -99.87112566 168.27218826 -101.34375 168.20507812 C-102.08173828 168.18251953 -102.81972656 168.15996094 -103.58007812 168.13671875 C-109.00492464 167.86670377 -109.00492464 167.86670377 -111.48046875 166.22460938 C-112.53125 164.51757812 -112.53125 164.51757812 -113.53125 160.51757812 C-124.09125 160.51757812 -134.65125 160.51757812 -145.53125 160.51757812 Z M-207.53125 435.51757812 C-209.98202023 439.48951609 -209.84373284 443.72181834 -209.78125 448.26757812 C-209.77375732 448.97914063 -209.76626465 449.69070313 -209.75854492 450.42382812 C-209.57906129 459.21551777 -208.41631989 466.67655779 -202.53125 473.51757812 C-192.96132252 481.75022317 -180.58011465 480.80621889 -168.71655273 480.77154541 C-166.99928118 480.77385162 -165.2820106 480.77702922 -163.56474209 480.7809999 C-158.85937007 480.7893345 -154.15407938 480.78522868 -149.4487071 480.77902746 C-144.36888553 480.77449853 -139.28907784 480.78148893 -134.20925903 480.7869873 C-124.26323472 480.79587821 -114.3172406 480.79396063 -104.37121511 480.78816202 C-96.28750311 480.78364436 -88.20379957 480.78303309 -80.12008667 480.78520966 C-78.39398813 480.78566935 -78.39398813 480.78566935 -76.63301891 480.78613834 C-74.2952923 480.78677779 -71.95756568 480.78742622 -69.61983907 480.78808352 C-47.70151765 480.79378593 -25.78321295 480.78723032 -3.86489427 480.77648279 C14.94001376 480.76754736 33.7448971 480.76909943 52.54980469 480.77832031 C74.38996633 480.78902451 96.23011331 480.79323662 118.07027721 480.78709579 C120.39938036 480.78645869 122.72848352 480.78582995 125.05758667 480.78520966 C126.20353524 480.7849011 127.34948382 480.78459255 128.5301581 480.78427465 C136.60369663 480.78254816 144.67722585 480.78546183 152.75076294 480.79016876 C162.59035032 480.79577924 172.4299058 480.7942576 182.26948953 480.78360727 C187.28929542 480.77835285 192.30904812 480.77628997 197.32885361 480.78290558 C201.92545319 480.7888718 206.52195034 480.78557874 211.11854064 480.77495047 C212.77992714 480.77271932 214.44132232 480.77384635 216.10270321 480.77870205 C231.74076427 481.151269 231.74076427 481.151269 245.46875 474.51757812 C253.16957907 466.7613474 254.63755532 459.31647061 254.71875 448.51757812 C254.739375 447.83179688 254.76 447.14601563 254.78125 446.43945312 C254.81731424 441.71503819 254.14810665 438.43176871 251.46875 434.51757812 C247.4532852 432.39732509 243.98331789 432.27035696 239.48954773 432.27706909 C238.79923881 432.27536024 238.10892989 432.27365139 237.39770252 432.27189076 C235.09144443 432.26860426 232.7854792 432.27958551 230.47924805 432.29052734 C228.82335924 432.29109164 227.16746994 432.29077454 225.51158142 432.28964233 C221.02024132 432.28906854 216.52900806 432.30082722 212.03769279 432.31479025 C207.34250159 432.32729311 202.64730794 432.32846776 197.95210266 432.33084106 C189.06283776 432.33705713 180.17362206 432.35346969 171.28437883 432.37354004 C161.16354335 432.39589507 151.04270553 432.40689148 140.92185152 432.41693091 C120.10412355 432.43783579 99.28643988 432.47301427 78.46875 432.51757812 C78.41541504 433.5474585 78.36208008 434.57733887 78.30712891 435.63842773 C78.22854369 437.00311285 78.14958519 438.36777652 78.0703125 439.73242188 C78.03623291 440.4096228 78.00215332 441.08682373 77.96704102 441.7845459 C77.51468279 449.29414931 75.54939609 453.85531623 70.03125 458.89257812 C65.04086482 463.03772406 60.22215626 463.81634702 53.86791992 463.80810547 C52.74493248 463.8181813 52.74493248 463.8181813 51.59925842 463.82846069 C49.13251037 463.8474058 46.66603496 463.85136325 44.19921875 463.85351562 C42.47674957 463.85994652 40.75428148 463.8666751 39.03181458 463.87368774 C35.42312082 463.88565217 31.81452273 463.88936948 28.20581055 463.88818359 C23.59580295 463.88798058 18.98641301 463.91526835 14.37655163 463.94972801 C10.81876341 463.97203577 7.26112285 463.97601993 3.70327187 463.97496414 C2.00450833 463.97731482 0.30574039 463.98610815 -1.39295387 464.00162888 C-19.16443365 464.14878837 -19.16443365 464.14878837 -26.5546875 457.77148438 C-27.22371094 456.93423828 -27.22371094 456.93423828 -27.90625 456.08007812 C-28.59847656 455.24669922 -28.59847656 455.24669922 -29.3046875 454.39648438 C-32.35232872 449.72796391 -32.90504525 445.17401482 -33.15625 439.70507812 C-33.19492188 439.01220703 -33.23359375 438.31933594 -33.2734375 437.60546875 C-33.36698568 435.90990798 -33.45017364 434.21378101 -33.53125 432.51757812 C-55.3320819 432.44750045 -77.13289523 432.39459601 -98.93381691 432.36214161 C-109.05633942 432.34667201 -119.17879194 432.32558068 -129.30126953 432.29125977 C-138.12390768 432.2613603 -146.94649515 432.2420038 -155.76918256 432.23531264 C-160.44083707 432.23140132 -165.11234658 432.22220718 -169.78395462 432.20038795 C-174.18174419 432.18001419 -178.57932913 432.17374613 -182.97716141 432.17825508 C-184.5904349 432.17743028 -186.20371528 432.17146989 -187.81694794 432.1599617 C-190.0221467 432.1450033 -192.2265761 432.14863622 -194.43179321 432.15681458 C-195.66515223 432.1540492 -196.89851124 432.15128382 -198.16924477 432.14843464 C-201.91685156 432.55991664 -204.32765452 433.55854754 -207.53125 435.51757812 Z M-17.53125 432.51757812 C-17.78438245 440.32475723 -17.78438245 440.32475723 -14.53125 446.51757812 C-10.69953909 448.50018156 -7.46062148 448.77444823 -3.18383789 448.79223633 C-1.92225357 448.80176834 -0.66066925 448.81130035 0.6391449 448.82112122 C2.00812813 448.82085977 3.37711138 448.81992263 4.74609375 448.81835938 C6.15947088 448.82224978 7.57284684 448.82658516 8.98622131 448.8313446 C11.94422196 448.83879292 14.90210321 448.83852562 17.86010742 448.83325195 C21.64070568 448.82745832 25.42081387 448.84439197 29.20133114 448.86759663 C32.11909313 448.88236637 35.03673796 448.88320131 37.95453072 448.8800869 C39.34791599 448.88059846 40.7413081 448.8858051 42.13465691 448.89589882 C44.08704732 448.90830779 46.03953719 448.89950812 47.99194336 448.88989258 C49.10049179 448.890522 50.20904022 448.89115143 51.35118103 448.89179993 C54.95925167 448.45870006 57.36680836 447.38425811 60.46875 445.51757812 C63.24935181 441.09389342 62.46875 438.15633181 62.46875 432.51757812 C36.06875 432.51757812 9.66875 432.51757812 -17.53125 432.51757812 Z " fill="#000000" transform="translate(233.53125,7.482421875)"/>
<path d="M0 0 C18.38674221 14.65927658 30.80537007 34.33196328 34.29296875 57.828125 C35.19768718 72.21127615 35.08496085 86.1457265 30.29296875 99.828125 C29.94234375 100.86453125 29.59171875 101.9009375 29.23046875 102.96875 C20.42847957 126.31847131 2.68196955 142.84358844 -19.72460938 152.98681641 C-39.11865108 161.21734199 -62.85397061 161.78127066 -82.70703125 154.828125 C-83.7434375 154.4775 -84.77984375 154.126875 -85.84765625 153.765625 C-109.19522713 144.96444645 -125.72129533 127.21878808 -135.86572266 104.81494141 C-143.95510015 85.71124029 -145.19845143 61.27653505 -137.70703125 41.828125 C-137.32160156 40.76980469 -136.93617188 39.71148437 -136.5390625 38.62109375 C-127.78117649 16.08866857 -110.94341711 -1.1090737 -88.89453125 -10.921875 C-86.84481456 -11.70613755 -84.78126064 -12.45495193 -82.70703125 -13.171875 C-81.02673828 -13.76162109 -81.02673828 -13.76162109 -79.3125 -14.36328125 C-51.93036987 -22.59225648 -22.73490585 -16.90837219 0 0 Z M-105.08203125 20.578125 C-114.73980134 30.48855094 -119.98416162 41.67824643 -123.70703125 54.828125 C-123.88588867 55.45348145 -124.06474609 56.07883789 -124.24902344 56.72314453 C-128.18982884 74.83488449 -123.41936842 93.12718651 -114.609375 108.87890625 C-112.86798354 112.00865373 -112.86798354 112.00865373 -109.70703125 113.828125 C-109.49949219 112.82394531 -109.29195312 111.81976563 -109.078125 110.78515625 C-106.41797922 98.69642007 -102.68275027 88.74226105 -93.70703125 79.828125 C-93.70703125 79.168125 -93.70703125 78.508125 -93.70703125 77.828125 C-93.06765625 77.539375 -92.42828125 77.250625 -91.76953125 76.953125 C-89.55497046 75.99989049 -89.55497046 75.99989049 -88.70703125 73.828125 C-89.30844993 72.47417742 -89.9655703 71.14489776 -90.64453125 69.828125 C-94.43686577 60.7238794 -94.17812946 49.08967145 -91.14453125 39.765625 C-86.48683666 29.16815264 -78.39016514 21.39429909 -67.70703125 16.890625 C-56.98901512 13.83923251 -43.47633033 14.43982093 -33.70703125 19.828125 C-25.13655747 25.04794506 -17.93521374 33.22116527 -15.14453125 43.0234375 C-13.4341053 53.98848954 -13.73261113 64.74604136 -18.70703125 74.828125 C-17.33217593 76.36979142 -17.33217593 76.36979142 -15.70703125 77.828125 C-15.04703125 77.828125 -14.38703125 77.828125 -13.70703125 77.828125 C-13.43503906 78.41464844 -13.16304688 79.00117188 -12.8828125 79.60546875 C-11.72983989 81.78500833 -10.45260836 83.48722209 -8.89453125 85.390625 C-2.41352481 93.95819937 0.25458566 103.40419846 2.29296875 113.828125 C6.27009392 110.22684499 8.72379781 106.68845253 10.91796875 101.765625 C11.21646729 101.09789062 11.51496582 100.43015625 11.82250977 99.7421875 C19.11198512 82.97979955 20.2954183 63.46173265 13.7109375 46.2109375 C13.00904297 44.53644531 13.00904297 44.53644531 12.29296875 42.828125 C11.89722656 41.87679687 11.50148438 40.92546875 11.09375 39.9453125 C3.72390615 23.93242918 -10.22864646 11.09558496 -26.34375 4.29296875 C-54.35929893 -5.74813186 -83.64381471 -0.31493664 -105.08203125 20.578125 Z M-73.26171875 41.73046875 C-77.3868102 47.71742581 -77.42311267 53.77747712 -76.70703125 60.828125 C-74.93360692 67.47285414 -70.26036655 72.00180459 -64.70703125 75.828125 C-58.70816121 78.76874757 -51.82419595 78.92696288 -45.39453125 77.2109375 C-39.26570264 74.50563425 -34.46750333 69.41948805 -31.53515625 63.4375 C-29.62897268 57.43122348 -29.64264438 50.32520942 -32.20703125 44.515625 C-35.69165263 38.57564763 -41.14158955 33.91176817 -47.70703125 31.828125 C-59.14148222 30.47176254 -65.88520614 33.10166446 -73.26171875 41.73046875 Z M-78.70703125 87.828125 C-88.2100931 97.55454942 -92.22671057 105.31589558 -93.70703125 118.828125 C-93.83851563 119.82972656 -93.97 120.83132812 -94.10546875 121.86328125 C-94.59477141 127.02535422 -94.59477141 127.02535422 -92.33984375 131.44921875 C-90.19779119 132.87577242 -88.0864683 133.84491676 -85.70703125 134.828125 C-84.75441406 135.26769531 -83.80179688 135.70726562 -82.8203125 136.16015625 C-65.51577274 143.84860093 -45.49029819 144.61847606 -27.70703125 137.828125 C-20.16065128 134.67873362 -20.16065128 134.67873362 -13.70703125 129.828125 C-12.32966714 118.5256372 -14.45240528 106.37302567 -20.70703125 96.828125 C-23.23335656 93.68310778 -25.89381921 90.71812447 -28.70703125 87.828125 C-31.16178264 88.79264679 -33.58417101 89.76998388 -35.96875 90.8984375 C-46.15500927 95.32724588 -58.54176285 95.72455449 -69.01953125 91.953125 C-70.59281895 91.26908687 -72.15634319 90.56195666 -73.70703125 89.828125 C-75.37046966 89.15344369 -77.03631713 88.48458258 -78.70703125 87.828125 Z " fill="#000000" transform="translate(309.70703125,73.171875)"/>
<path d="M0 0 C2.894386 2.24015715 3.91345395 3.33186448 4.390625 7.015625 C4.34421875 8.08296875 4.2978125 9.1503125 4.25 10.25 C4.21390625 11.32765625 4.1778125 12.4053125 4.140625 13.515625 C4.09421875 14.33546875 4.0478125 15.1553125 4 16 C5.11420319 15.98667633 5.11420319 15.98667633 6.25091553 15.9730835 C13.25449905 15.89290256 20.25792335 15.83201814 27.26183701 15.79275131 C30.86258286 15.77188487 34.46294916 15.74358579 38.06347656 15.69824219 C41.53887913 15.65474875 45.01391688 15.63085579 48.48957062 15.62049103 C50.45945784 15.60951385 52.42919847 15.578293 54.39886475 15.54681396 C56.20027924 15.54636078 56.20027924 15.54636078 58.03808594 15.54589844 C59.09509705 15.53701599 60.15210815 15.52813354 61.2411499 15.51898193 C64.77282912 16.13474627 65.92436949 17.1019945 68 20 C68.50793457 22.58007812 68.50793457 22.58007812 68.51757812 25.53125 C68.53018677 26.63919922 68.54279541 27.74714844 68.55578613 28.88867188 C68.54768921 30.08041016 68.53959229 31.27214844 68.53125 32.5 C68.53699036 34.34174805 68.53699036 34.34174805 68.54284668 36.22070312 C68.54556842 38.81641459 68.53818911 41.41215336 68.52148438 44.0078125 C68.50008075 47.98499599 68.52127963 51.96037282 68.546875 55.9375 C68.54423177 58.45833733 68.53910691 60.97917353 68.53125 63.5 C68.53934692 64.69173828 68.54744385 65.88347656 68.55578613 67.11132812 C68.54317749 68.21927734 68.53056885 69.32722656 68.51757812 70.46875 C68.51439575 71.44263672 68.51121338 72.41652344 68.50793457 73.41992188 C67.83767272 76.82454922 66.8040942 77.98382826 64 80 C61.2411499 80.48101807 61.2411499 80.48101807 58.03808594 80.45410156 C56.83714294 80.45379944 55.63619995 80.45349731 54.39886475 80.45318604 C53.10708313 80.43254089 51.81530151 80.41189575 50.484375 80.390625 C49.14488571 80.38316071 47.80538548 80.37746866 46.46588135 80.37347412 C42.94748564 80.35823213 39.42975485 80.31896418 35.91162109 80.2746582 C32.31877639 80.23367364 28.7258238 80.2154564 25.1328125 80.1953125 C18.08827034 80.15246745 11.04417868 80.08423446 4 80 C4.04640625 80.81984375 4.0928125 81.6396875 4.140625 82.484375 C4.19476563 84.10085937 4.19476563 84.10085937 4.25 85.75 C4.29640625 86.81734375 4.3428125 87.8846875 4.390625 88.984375 C4 92 4 92 2.21875 94.34765625 C-0.44546149 96.33174333 -2.56307163 96.74984435 -5.87559509 96.57585144 C-8.48781199 95.86777133 -9.75184238 94.80054419 -11.74047852 92.97387695 C-12.43577667 92.33777496 -13.13107483 91.70167297 -13.84744263 91.04629517 C-17.41475511 87.65508507 -20.9268646 84.21570332 -24.40234375 80.73046875 C-25.16551407 79.96825516 -25.92868439 79.20604156 -26.71498108 78.42073059 C-28.31194789 76.82443932 -29.90767253 75.22690447 -31.50219727 73.62817383 C-33.95149736 71.17347177 -36.40614904 68.72421104 -38.86132812 66.27539062 C-40.4169878 64.71907093 -41.97233766 63.16244148 -43.52734375 61.60546875 C-44.2626683 60.87216843 -44.99799286 60.1388681 -45.75559998 59.38334656 C-46.43042923 58.70536514 -47.10525848 58.02738373 -47.80053711 57.32885742 C-48.3959581 56.73264084 -48.99137909 56.13642426 -49.60484314 55.5221405 C-52.19117688 52.70040521 -52.52250727 49.99152925 -52.46965027 46.19520569 C-51.88538884 43.46429271 -50.87395614 42.29484238 -48.9855957 40.25170898 C-48.34780182 39.55753876 -47.71000793 38.86336853 -47.05288696 38.14816284 C-43.65216801 34.58961422 -40.21590836 31.07333986 -36.73046875 27.59765625 C-35.58714836 26.45290077 -35.58714836 26.45290077 -34.42073059 25.28501892 C-32.82443932 23.68805211 -31.22690447 22.09232747 -29.62817383 20.49780273 C-27.17347177 18.04850264 -24.72421104 15.59385096 -22.27539062 13.13867188 C-20.71907093 11.5830122 -19.16244148 10.02766234 -17.60546875 8.47265625 C-16.87216843 7.7373317 -16.1388681 7.00200714 -15.38334656 6.24440002 C-14.70536514 5.56957077 -14.02738373 4.89474152 -13.32885742 4.19946289 C-12.73264084 3.6040419 -12.13642426 3.00862091 -11.5221405 2.39515686 C-8.27116901 -0.58460432 -4.20827097 -0.86547459 0 0 Z M-12 28 C-18.27 34.27 -24.54 40.54 -31 47 C-29.19522505 50.6095499 -27.88074534 52.35628071 -25.0859375 55.109375 C-23.94511719 56.24052734 -23.94511719 56.24052734 -22.78125 57.39453125 C-21.9871875 58.17183594 -21.193125 58.94914062 -20.375 59.75 C-19.57320313 60.54277344 -18.77140625 61.33554688 -17.9453125 62.15234375 C-15.96797154 64.10614493 -13.98611091 66.05512103 -12 68 C-11.46296448 67.51391769 -10.92592896 67.02783539 -10.37261963 66.52702332 C-7.39683944 64.61180451 -5.56143644 64.60463694 -2.03808594 64.56762695 C-0.83714294 64.54783279 0.36380005 64.52803864 1.60113525 64.50764465 C3.53880768 64.49805977 3.53880768 64.49805977 5.515625 64.48828125 C6.85513961 64.47142992 8.19463846 64.45327906 9.53411865 64.43388367 C13.05215527 64.38642604 16.57012795 64.35658972 20.08837891 64.33044434 C23.68144266 64.30061712 27.2742906 64.25425518 30.8671875 64.20898438 C37.91147568 64.12143975 44.95524244 64.06146148 52 64 C52 53.44 52 42.88 52 32 C47.71515625 31.96261719 43.4303125 31.92523438 39.015625 31.88671875 C35.59685184 31.84860651 32.17814276 31.80753377 28.75942993 31.7644577 C25.15181598 31.71981378 21.54431774 31.68037527 17.93652344 31.65356445 C14.46092359 31.62753479 10.98575943 31.58713579 7.51042938 31.53681374 C5.54076478 31.51203501 3.57093161 31.50209914 1.60113525 31.49235535 C0.40019226 31.47256119 -0.80075073 31.45276703 -2.03808594 31.43237305 C-3.09509705 31.42126999 -4.15210815 31.41016693 -5.2411499 31.39872742 C-8 31 -8 31 -12 28 Z " fill="#000000" transform="translate(436,8)"/>
<path d="M0 0 C2.61221689 0.70808011 3.87624729 1.77530725 5.86488342 3.60197449 C6.56018158 4.23807648 7.25547974 4.87417847 7.97184753 5.52955627 C11.53916002 8.92076637 15.05126951 12.36014812 18.52674866 15.84538269 C19.67150414 16.98870308 19.67150414 16.98870308 20.83938599 18.15512085 C22.43635279 19.75141212 24.03207744 21.34894697 25.62660217 22.94767761 C28.07590226 25.40237967 30.53055395 27.8516404 32.98573303 30.30046082 C34.54139271 31.85678051 36.09674257 33.41340996 37.65174866 34.97038269 C38.38707321 35.70368301 39.12239777 36.43698334 39.88000488 37.19250488 C40.55483414 37.8704863 41.22966339 38.54846771 41.92494202 39.24699402 C42.8180735 40.14131889 42.8180735 40.14131889 43.72924805 41.05371094 C46.31558179 43.87544623 46.64691218 46.58432219 46.59405518 50.38064575 C46.00979375 53.11155873 44.99836104 54.28100906 43.11000061 56.32414246 C42.47220673 57.01831268 41.83441284 57.71248291 41.17729187 58.4276886 C37.77657292 61.98623722 34.34031326 65.50251158 30.85487366 68.97819519 C30.09266006 69.74136551 29.33044647 70.50453583 28.5451355 71.29083252 C26.94884423 72.88779933 25.35130938 74.48352397 23.75257874 76.07804871 C21.29787668 78.5273488 18.84861595 80.98200048 16.39979553 83.43717957 C14.84347584 84.99283924 13.28684639 86.5481891 11.72987366 88.10319519 C10.99657333 88.83851974 10.26327301 89.5738443 9.50775146 90.33145142 C8.49077934 91.3436953 8.49077934 91.3436953 7.45326233 92.37638855 C6.85704575 92.97180954 6.26082916 93.56723053 5.64654541 94.18069458 C2.7181296 96.86480909 0.07549666 96.78767338 -3.80528259 97.00163269 C-6.86407215 96.37256088 -7.94632821 94.99380267 -9.87559509 92.57585144 C-10.26622009 89.56022644 -10.26622009 89.56022644 -10.12559509 86.32585144 C-10.08950134 85.24819519 -10.05340759 84.17053894 -10.01622009 83.06022644 C-9.96981384 82.24038269 -9.92340759 81.42053894 -9.87559509 80.57585144 C-10.98979828 80.58917511 -10.98979828 80.58917511 -12.12651062 80.60276794 C-19.13009415 80.68294888 -26.13351844 80.74383331 -33.1374321 80.78310013 C-36.73817795 80.80396657 -40.33854425 80.83226565 -43.93907166 80.87760925 C-47.41447423 80.92110269 -50.88951197 80.94499565 -54.36516571 80.95536041 C-56.33505293 80.96633759 -58.30479357 80.99755844 -60.27445984 81.02903748 C-62.07587433 81.02949066 -62.07587433 81.02949066 -63.91368103 81.029953 C-65.49919769 81.04327667 -65.49919769 81.04327667 -67.116745 81.05686951 C-70.64842421 80.44110517 -71.79996458 79.47385694 -73.87559509 76.57585144 C-74.38352966 73.99577332 -74.38352966 73.99577332 -74.39317322 71.04460144 C-74.40578186 69.93665222 -74.4183905 68.828703 -74.43138123 67.68717957 C-74.4232843 66.49544128 -74.41518738 65.303703 -74.40684509 64.07585144 C-74.410672 62.84801941 -74.4144989 61.62018738 -74.41844177 60.35514832 C-74.42116351 57.75943685 -74.4137842 55.16369808 -74.39707947 52.56803894 C-74.37567584 48.59085545 -74.39687472 44.61547862 -74.42247009 40.63835144 C-74.41982687 38.11751411 -74.414702 35.59667791 -74.40684509 33.07585144 C-74.41494202 31.88411316 -74.42303894 30.69237488 -74.43138123 29.46452332 C-74.41877258 28.3565741 -74.40616394 27.24862488 -74.39317322 26.10710144 C-74.38999084 25.13321472 -74.38680847 24.159328 -74.38352966 23.15592957 C-73.71326782 19.75130222 -72.67968929 18.59202318 -69.87559509 16.57585144 C-67.116745 16.09483337 -67.116745 16.09483337 -63.91368103 16.12174988 C-62.71273804 16.122052 -61.51179504 16.12235413 -60.27445984 16.12266541 C-58.98267822 16.14331055 -57.69089661 16.16395569 -56.35997009 16.18522644 C-55.02048081 16.19269073 -53.68098057 16.19838278 -52.34147644 16.20237732 C-48.82308073 16.21761931 -45.30534994 16.25688726 -41.78721619 16.30119324 C-38.19437148 16.3421778 -34.60141889 16.36039504 -31.00840759 16.38053894 C-23.96386543 16.42338399 -16.91977377 16.49161698 -9.87559509 16.57585144 C-9.92200134 15.75600769 -9.96840759 14.93616394 -10.01622009 14.09147644 C-10.07036072 12.47499207 -10.07036072 12.47499207 -10.12559509 10.82585144 C-10.17200134 9.75850769 -10.21840759 8.69116394 -10.26622009 7.59147644 C-9.87559509 4.57585144 -9.87559509 4.57585144 -8.09434509 2.22819519 C-5.4301336 0.24410811 -3.31252346 -0.17399291 0 0 Z M5.12440491 28.57585144 C4.53190193 29.3049749 4.53190193 29.3049749 3.9274292 30.04882812 C1.3806809 32.20572865 -0.41471306 31.97353612 -3.72398376 32.00822449 C-5.52551155 32.03791573 -5.52551155 32.03791573 -7.36343384 32.06820679 C-8.66037674 32.07459671 -9.95731964 32.08098663 -11.29356384 32.08757019 C-12.63450775 32.10441603 -13.97543585 32.12256615 -15.31634521 32.14196777 C-18.8426164 32.18948502 -22.36882353 32.21928277 -25.89530945 32.2454071 C-29.4949856 32.27520424 -33.09444541 32.32157574 -36.69395447 32.36686707 C-43.75451924 32.45448735 -50.8145592 32.51441428 -57.87559509 32.57585144 C-57.87559509 43.13585144 -57.87559509 53.69585144 -57.87559509 64.57585144 C-53.59075134 64.61323425 -49.30590759 64.65061707 -44.89122009 64.68913269 C-41.47244693 64.72724493 -38.05373785 64.76831767 -34.63502502 64.81139374 C-31.02741108 64.85603766 -27.41991283 64.89547617 -23.81211853 64.92228699 C-20.33651868 64.94831665 -16.86135452 64.98871565 -13.38602448 65.0390377 C-11.41635987 65.06381643 -9.4465267 65.0737523 -7.47673035 65.08349609 C-6.27578735 65.10329025 -5.07484436 65.12308441 -3.83750916 65.14347839 C-2.78049805 65.15458145 -1.72348694 65.16568451 -0.63444519 65.17712402 C2.12440491 65.57585144 2.12440491 65.57585144 6.12440491 68.57585144 C12.39440491 62.30585144 18.66440491 56.03585144 25.12440491 49.57585144 C23.32893434 45.98491031 22.01378623 44.21840639 19.24549866 41.46647644 C18.4894635 40.71237488 17.73342834 39.95827332 16.95448303 39.18132019 C16.16493225 38.4040155 15.37538147 37.62671082 14.56190491 36.82585144 C13.76848694 36.033078 12.97506897 35.24030457 12.15760803 34.42350769 C9.05970519 30.66907677 9.05970519 30.66907677 5.12440491 28.57585144 Z " fill="#000000" transform="translate(81.87559509277344,7.4241485595703125)"/>
<path d="M0 0 C2.00861753 2.33509561 3.2056387 4.97011107 4.5 7.75 C4.89944824 8.55751709 5.29889648 9.36503418 5.71044922 10.19702148 C6.6232639 12.0452251 7.52603085 13.89841141 8.42089844 15.75537109 C10.23303015 19.47881427 12.10092028 23.17155584 13.9765625 26.86328125 C15.360733 29.59566819 16.74326963 32.32887838 18.125 35.0625 C18.46668213 35.73800903 18.80836426 36.41351807 19.16040039 37.10949707 C20.13482342 39.04085469 21.10344591 40.97500688 22.0703125 42.91015625 C22.63508301 44.03558838 23.19985352 45.16102051 23.78173828 46.32055664 C25 49 25 49 25 51 C25.66 51 26.32 51 27 51 C27.23106445 50.21842529 27.46212891 49.43685059 27.70019531 48.6315918 C30.51119154 40.7778035 34.52381048 33.38026816 38.22070312 25.91333008 C39.24097138 23.84461566 40.25334435 21.77198877 41.2578125 19.69555664 C42.71171719 16.69045553 44.18892113 13.69788331 45.671875 10.70703125 C46.11585632 9.77889114 46.55983765 8.85075104 47.01727295 7.89448547 C49.03911172 3.87774231 50.34790459 1.45156528 54.09863281 -1.14575195 C58.03498135 -2.30472902 60.26636607 -1.57961436 64 0 C66.39945152 3.59917728 66.26971759 6.16429525 66.22705078 10.31713867 C66.22734283 11.05884811 66.22763489 11.80055756 66.22793579 12.56474304 C66.22654264 15.01593735 66.21098227 17.46682755 66.1953125 19.91796875 C66.19158232 21.61761814 66.18873537 23.31726969 66.18673706 25.016922 C66.17910102 29.49024391 66.15945279 33.96343594 66.1373291 38.43670654 C66.11687004 43.00140628 66.10773522 47.566127 66.09765625 52.13085938 C66.07620685 61.08730583 66.04102495 70.04362179 66 79 C60.72 79 55.44 79 50 79 C49.67 67.78 49.34 56.56 49 45 C44.27523764 54.68634749 44.27523764 54.68634749 39.57739258 64.38574219 C38.97573606 65.6065953 38.37317485 66.82700316 37.76953125 68.046875 C37.47123413 68.67416504 37.17293701 69.30145508 36.86560059 69.94775391 C34.85023393 73.98329526 32.79528685 76.54451468 29 79 C25.02917955 79.48622291 22.29387944 79.28103884 19 77 C17.5471247 74.60891701 16.30926018 72.31728419 15.109375 69.8046875 C14.75989807 69.09724396 14.41042114 68.38980042 14.050354 67.66091919 C12.93882976 65.40433629 11.84429911 63.13997818 10.75 60.875 C9.99850198 59.34190521 9.24591033 57.80934597 8.4921875 56.27734375 C6.64658688 52.52516452 4.8241969 48.7629364 3 45 C2.67 56.22 2.34 67.44 2 79 C-3.28 79 -8.56 79 -14 79 C-14.0903524 69.15992857 -14.16374533 59.32013243 -14.20724869 49.47974014 C-14.22812765 44.91049036 -14.25645071 40.34153898 -14.30175781 35.77246094 C-14.34520488 31.36339127 -14.36913478 26.9546087 -14.37950897 22.54534149 C-14.38690243 20.86278513 -14.40134017 19.18024457 -14.42292023 17.49781036 C-14.45194003 15.14174899 -14.45595675 12.78687527 -14.45410156 10.43066406 C-14.46848267 9.73438904 -14.48286377 9.03811401 -14.49768066 8.32073975 C-14.46926412 4.98757311 -14.21163763 3.27613725 -12.15911865 0.5980835 C-7.73240858 -2.67837021 -4.91403348 -2.11517093 0 0 Z " fill="#000000" transform="translate(302,297)"/>
<path d="M0 0 C0.83476868 -0.01260864 1.66953735 -0.02521729 2.52960205 -0.03820801 C3.87184845 -0.02606262 3.87184845 -0.02606262 5.24121094 -0.01367188 C6.17100769 -0.01749878 7.10080444 -0.02132568 8.05877686 -0.02526855 C10.02568646 -0.02798864 11.99263219 -0.0206207 13.95947266 -0.00390625 C16.9513558 0.01740553 19.94081108 -0.00365423 22.93261719 -0.02929688 C24.84798703 -0.02665172 26.76335536 -0.02152288 28.67871094 -0.01367188 C30.00881195 -0.02581726 30.00881195 -0.02581726 31.36578369 -0.03820801 C38.37217157 0.0660443 43.6588429 1.8301709 48.96777344 6.48242188 C49.50660156 7.13339844 50.04542969 7.784375 50.60058594 8.45507812 C51.43203125 9.42767578 51.43203125 9.42767578 52.28027344 10.41992188 C56.75716424 16.91746339 56.40778099 23.89253718 55.72558594 31.51757812 C54.04313372 37.91492638 49.91098462 41.67222629 44.72558594 45.51757812 C45.41394531 46.59072266 45.41394531 46.59072266 46.11621094 47.68554688 C52.61222459 58.23474552 56.47118479 68.02879735 55.72558594 80.51757812 C50.11558594 80.51757812 44.50558594 80.51757812 38.72558594 80.51757812 C38.49871094 78.90882813 38.27183594 77.30007813 38.03808594 75.64257812 C36.21568177 65.67069051 31.6057753 58.03175329 24.22558594 51.20507812 C19.41384236 48.62348497 19.41384236 48.62348497 7.72558594 48.51757812 C7.72558594 59.07757813 7.72558594 69.63757813 7.72558594 80.51757812 C2.44558594 80.51757812 -2.83441406 80.51757812 -8.27441406 80.51757812 C-8.36476646 70.67750669 -8.43815939 60.83771055 -8.48166275 50.99731827 C-8.50254171 46.42806849 -8.53086478 41.8591171 -8.57617188 37.29003906 C-8.61961895 32.8809694 -8.64354884 28.47218682 -8.65392303 24.06291962 C-8.66131649 22.38036326 -8.67575423 20.6978227 -8.69733429 19.01538849 C-8.72635409 16.65932712 -8.73037081 14.30445339 -8.72851562 11.94824219 C-8.74289673 11.25196716 -8.75727783 10.55569214 -8.77209473 9.83831787 C-8.74408255 6.55258246 -8.46064915 4.77474854 -6.51318359 2.08551025 C-4.06230236 0.36902476 -2.95139691 0.0128509 0 0 Z M7.72558594 16.51757812 C7.72558594 21.79757812 7.72558594 27.07757813 7.72558594 32.51757812 C11.60100871 32.59869162 15.47472476 32.65813863 19.35058594 32.70507812 C20.445 32.73021484 21.53941406 32.75535156 22.66699219 32.78125 C30.62582351 32.88706382 30.62582351 32.88706382 37.72558594 29.51757812 C39.14600414 26.67674171 39.04010866 24.66280535 38.72558594 21.51757812 C36.49352163 18.66977194 35.17565595 17.66760146 31.72558594 16.51757812 C29.87948061 16.43518644 28.0305343 16.41014454 26.18261719 16.41992188 C24.57290039 16.42475586 24.57290039 16.42475586 22.93066406 16.4296875 C21.81111328 16.43806641 20.6915625 16.44644531 19.53808594 16.45507812 C17.84135742 16.4618457 17.84135742 16.4618457 16.11035156 16.46875 C13.31540718 16.48054301 10.52048994 16.49847855 7.72558594 16.51757812 Z " fill="#000000" transform="translate(224.2744140625,295.482421875)"/>
<path d="M0 0 C2.04146591 -0.00436055 4.08074385 -0.04068319 6.12182617 -0.07861328 C14.90752544 -0.10464498 20.70890427 0.395706 27.48706055 6.33544922 C32.79533371 12.74855435 34.24487305 15.6817328 34.24487305 24.37060547 C28.63487305 24.37060547 23.02487305 24.37060547 17.24487305 24.37060547 C16.58487305 22.72060547 15.92487305 21.07060547 15.24487305 19.37060547 C11.19142114 16.89680761 6.86205694 17.06949273 2.24487305 17.12060547 C1.54620117 17.11287109 0.8475293 17.10513672 0.12768555 17.09716797 C-3.89919922 17.11236376 -7.27747045 17.24821216 -10.75512695 19.37060547 C-12.91461912 23.47987534 -13.0126754 27.09100541 -13.02075195 31.68310547 C-13.02266541 32.3744458 -13.02457886 33.06578613 -13.02655029 33.77807617 C-13.02790588 35.23372768 -13.02425335 36.68939154 -13.01586914 38.14501953 C-13.00516018 40.36372219 -13.01578518 42.58161527 -13.02856445 44.80029297 C-13.02724275 46.21956558 -13.02468012 47.63883768 -13.02075195 49.05810547 C-13.01849609 50.34072266 -13.01624023 51.62333984 -13.01391602 52.94482422 C-12.76517701 56.23756542 -12.28369634 58.46191045 -10.75512695 61.37060547 C-6.70167504 63.84440332 -2.37231084 63.67171821 2.24487305 63.62060547 C2.94354492 63.62833984 3.6422168 63.63607422 4.36206055 63.64404297 C8.38894531 63.62884718 11.76721654 63.49299878 15.24487305 61.37060547 C15.90487305 59.72060547 16.56487305 58.07060547 17.24487305 56.37060547 C22.85487305 56.37060547 28.46487305 56.37060547 34.24487305 56.37060547 C34.24487305 63.9708099 33.53418611 67.8684141 28.3737793 73.36279297 C20.76712779 80.29361722 14.60983326 80.74363056 4.48974609 80.74121094 C2.44828018 80.74557149 0.40900224 80.78189413 -1.63208008 80.81982422 C-10.41777935 80.84585592 -16.21915818 80.34550494 -22.99731445 74.40576172 C-23.53614258 73.75478516 -24.0749707 73.10380859 -24.63012695 72.43310547 C-25.18442383 71.78470703 -25.7387207 71.13630859 -26.30981445 70.46826172 C-30.15593756 64.88618574 -30.07576309 59.6687177 -30.09106445 53.10107422 C-30.09772125 52.10610428 -30.10437805 51.11113434 -30.11123657 50.08601379 C-30.12134593 47.98387496 -30.12605412 45.88170414 -30.12573242 43.77954102 C-30.13009772 40.57953375 -30.16641456 37.38091509 -30.2043457 34.18115234 C-30.21021594 32.13363099 -30.21418395 30.08610312 -30.21606445 28.03857422 C-30.237621 26.61474678 -30.237621 26.61474678 -30.25961304 25.16215515 C-30.21042297 17.93375132 -28.5955184 12.61192692 -23.7902832 7.12841797 C-23.13930664 6.58958984 -22.48833008 6.05076172 -21.81762695 5.49560547 C-21.16922852 4.94130859 -20.52083008 4.38701172 -19.8527832 3.81591797 C-13.64631119 -0.46042215 -7.29075389 -0.00174316 0 0 Z " fill="#000000" transform="translate(173.755126953125,295.62939453125)"/>
</svg>
