<?xml version="1.0" encoding="UTF-8"?>
<svg version="1.1" xmlns="http://www.w3.org/2000/svg" width="512" height="512">
<path d="M0 0 C58.74 0 117.48 0 178 0 C178 17.82 178 35.64 178 54 C119.26 54 60.52 54 0 54 C0 36.18 0 18.36 0 0 Z M107 19 C107 24.28 107 29.56 107 35 C112.61 35 118.22 35 124 35 C124 29.72 124 24.44 124 19 C118.39 19 112.78 19 107 19 Z M142 19 C142 24.28 142 29.56 142 35 C147.61 35 153.22 35 159 35 C159 29.72 159 24.44 159 19 C153.39 19 147.78 19 142 19 Z " fill="#000000" transform="translate(167,388)"/>
<path d="M0 0 C0.66959246 -0.00382555 1.33918491 -0.00765109 2.02906805 -0.01159257 C4.27145759 -0.02190659 6.51359032 -0.01793354 8.7559967 -0.01396179 C10.36421953 -0.01830915 11.97244029 -0.02349238 13.58065796 -0.02944946 C17.94840943 -0.042848 22.31607441 -0.0434172 26.68384242 -0.04088616 C30.32955548 -0.03981705 33.97525099 -0.04469827 37.6209603 -0.04949158 C46.2213243 -0.06058968 54.82164463 -0.06102244 63.42201233 -0.05497742 C72.29593579 -0.04893605 81.16970075 -0.06125207 90.04359716 -0.08254749 C97.66153759 -0.10015703 105.27942753 -0.10616588 112.89738756 -0.10290974 C117.44764646 -0.10109574 121.99779228 -0.10374469 126.54803276 -0.11762428 C130.82688947 -0.13018754 135.10549888 -0.12827284 139.38435173 -0.11521339 C140.95449914 -0.1128448 142.52466386 -0.11559245 144.09479141 -0.12383652 C146.23885634 -0.13428212 148.38208814 -0.12622186 150.52612305 -0.11352539 C151.7257112 -0.11369313 152.92529936 -0.11386087 154.16123867 -0.1140337 C157.69761292 0.30462481 159.53593181 1.07052499 162.32655334 3.26069641 C169.93502815 18.47764603 164.32655334 37.24762954 164.32655334 54.26069641 C105.58655334 54.26069641 46.84655334 54.26069641 -13.67344666 54.26069641 C-13.67344666 7.26069641 -13.67344666 7.26069641 -10.67344666 2.26069641 C-7.32315418 -0.1922223 -4.05839827 0.00694737 0 0 Z M5.32655334 19.26069641 C5.32655334 24.87069641 5.32655334 30.48069641 5.32655334 36.26069641 C10.93655334 36.26069641 16.54655334 36.26069641 22.32655334 36.26069641 C22.32655334 30.65069641 22.32655334 25.04069641 22.32655334 19.26069641 C16.71655334 19.26069641 11.10655334 19.26069641 5.32655334 19.26069641 Z M40.32655334 19.26069641 C40.32655334 24.87069641 40.32655334 30.48069641 40.32655334 36.26069641 C45.93655334 36.26069641 51.54655334 36.26069641 57.32655334 36.26069641 C57.32655334 30.65069641 57.32655334 25.04069641 57.32655334 19.26069641 C51.71655334 19.26069641 46.10655334 19.26069641 40.32655334 19.26069641 Z " fill="#000000" transform="translate(180.67344665527344,316.7393035888672)"/>
<path d="M0 0 C58.74 0 117.48 0 178 0 C178 47 178 47 173 53 C169.77500916 53.75504684 169.77500916 53.75504684 166.05444336 53.76190186 C165.36766227 53.7712618 164.68088118 53.78062174 163.97328854 53.79026532 C161.67801492 53.81414874 159.38513388 53.79526554 157.08984375 53.77636719 C155.44205331 53.78449968 153.79427378 53.79518406 152.14651489 53.80822754 C147.67527135 53.8355757 143.20485864 53.82497813 138.73360062 53.80595303 C134.05406712 53.79076011 129.37460466 53.80485093 124.69506836 53.81427002 C116.8366214 53.82518535 108.97851278 53.81080189 101.12011719 53.78222656 C92.03521708 53.74957277 82.95112485 53.76014983 73.86624432 53.793185 C66.06563496 53.82041467 58.26526879 53.82425432 50.46462727 53.80855298 C45.80586314 53.79919962 41.14747873 53.79794907 36.48873901 53.81777191 C32.10861275 53.83510747 27.72952778 53.82307809 23.34951401 53.78840637 C21.74229537 53.78047412 20.13498906 53.78274955 18.52780533 53.79598236 C16.33254076 53.81239045 14.14060884 53.7918176 11.94555664 53.76190186 C10.71776993 53.7596397 9.48998322 53.75737755 8.22499084 53.75504684 C5 53 5 53 0 47 C0 31.49 0 15.98 0 0 Z M19 18 C19 23.61 19 29.22 19 35 C24.61 35 30.22 35 36 35 C36 29.39 36 23.78 36 18 C30.39 18 24.78 18 19 18 Z M54 18 C54 23.61 54 29.22 54 35 C59.61 35 65.22 35 71 35 C71 29.39 71 23.78 71 18 C65.39 18 59.78 18 54 18 Z " fill="#000000" transform="translate(167,459)"/>
<path d="M0 0 C40.92 0 81.84 0 124 0 C124 17.82 124 35.64 124 54 C83.08 54 42.16 54 0 54 C0 36.18 0 18.36 0 0 Z " fill="#000000" transform="translate(388,194)"/>
<path d="M0 0 C40.92 0 81.84 0 124 0 C124 17.82 124 35.64 124 54 C83.08 54 42.16 54 0 54 C0 36.18 0 18.36 0 0 Z " fill="#000000" transform="translate(194,194)"/>
<path d="M0 0 C40.92 0 81.84 0 124 0 C124 17.82 124 35.64 124 54 C83.08 54 42.16 54 0 54 C0 36.18 0 18.36 0 0 Z " fill="#000000" transform="translate(0,194)"/>
<path d="M0 0 C29.7 0 59.4 0 90 0 C90 29.37 90 58.74 90 89 C60.3 89 30.6 89 0 89 C0 59.63 0 30.26 0 0 Z M19 18 C19 23.61 19 29.22 19 35 C36.16 35 53.32 35 71 35 C71 29.39 71 23.78 71 18 C53.84 18 36.68 18 19 18 Z M19 53 C19 58.61 19 64.22 19 70 C36.16 70 53.32 70 71 70 C71 64.39 71 58.78 71 53 C53.84 53 36.68 53 19 53 Z " fill="#000000" transform="translate(211,0)"/>
<path d="M0 0 C29.37 0 58.74 0 89 0 C89 29.37 89 58.74 89 89 C59.63 89 30.26 89 0 89 C0 59.63 0 30.26 0 0 Z M18 18 C18 23.61 18 29.22 18 35 C35.16 35 52.32 35 70 35 C70 29.39 70 23.78 70 18 C52.84 18 35.68 18 18 18 Z M18 53 C18 58.61 18 64.22 18 70 C35.16 70 52.32 70 70 70 C70 64.39 70 58.78 70 53 C52.84 53 35.68 53 18 53 Z " fill="#000000" transform="translate(406,0)"/>
<path d="M0 0 C29.37 0 58.74 0 89 0 C89 29.37 89 58.74 89 89 C59.63 89 30.26 89 0 89 C0 59.63 0 30.26 0 0 Z M19 18 C19 23.61 19 29.22 19 35 C36.16 35 53.32 35 71 35 C71 29.39 71 23.78 71 18 C53.84 18 36.68 18 19 18 Z M19 53 C19 58.61 19 64.22 19 70 C36.16 70 53.32 70 71 70 C71 64.39 71 58.78 71 53 C53.84 53 36.68 53 19 53 Z " fill="#000000" transform="translate(17,0)"/>
<path d="M0 0 C6.27 0 12.54 0 19 0 C19.04637782 17.29871556 19.08203009 34.59740613 19.10362434 51.89616966 C19.11391923 59.929011 19.12794523 67.96181289 19.15087891 75.99462891 C19.17086769 82.99931924 19.18372942 90.003981 19.18817699 97.00869906 C19.19077511 100.71465063 19.19684421 104.42052049 19.21146011 108.12644577 C19.2276772 112.27232171 19.22797618 116.41805725 19.22705078 120.56396484 C19.23424133 121.78101105 19.24143188 122.99805725 19.24884033 124.25198364 C19.22232142 135.25995452 18.39626317 144.43590581 11 153 C4.87151377 158.64647046 -1.57998234 160.3109794 -9.84130859 160.22705078 C-10.60296326 160.22734283 -11.36461792 160.22763489 -12.14935303 160.22793579 C-14.6491666 160.22655031 -17.14867644 160.21102628 -19.6484375 160.1953125 C-21.3886397 160.19157958 -23.12884401 160.18873393 -24.86904907 160.18673706 C-29.43603376 160.17912254 -34.00289005 160.15949287 -38.56982422 160.1373291 C-43.2353339 160.1168236 -47.90086444 160.1077253 -52.56640625 160.09765625 C-61.71100282 160.07624482 -70.85547061 160.04108055 -80 160 C-80 154.06 -80 148.12 -80 142 C-77.85032715 141.98541748 -75.7006543 141.97083496 -73.48583984 141.95581055 C-66.37307277 141.90541091 -59.26052339 141.83880639 -52.1479702 141.76428509 C-47.83678441 141.71961045 -43.52569248 141.68034802 -39.21435547 141.65356445 C-35.05149758 141.62750231 -30.88900146 141.5870796 -26.72636795 141.53681374 C-25.14045343 141.52016464 -23.55447637 141.50863818 -21.96848679 141.50238609 C-19.74211706 141.49272338 -17.51666874 141.46464012 -15.29052734 141.43237305 C-14.02477875 141.42126999 -12.75903015 141.41016693 -11.45492554 141.39872742 C-7.65711262 140.96042792 -5.21643293 140.04876698 -2 138 C-0.969371 134.90811301 -0.86285188 132.75592475 -0.84178162 129.51411438 C-0.8319928 128.37407959 -0.82220398 127.2340448 -0.81211853 126.0594635 C-0.80636307 124.80789963 -0.8006076 123.55633575 -0.79467773 122.2668457 C-0.78477814 120.9496756 -0.77487854 119.63250549 -0.76467896 118.27542114 C-0.73763272 114.6620971 -0.71662164 111.04876 -0.69667697 107.43539071 C-0.67481569 103.65971765 -0.64742769 99.88408482 -0.62062073 96.10844421 C-0.57069577 88.95808234 -0.52575621 81.80769812 -0.48259836 74.65729254 C-0.43322431 66.51708531 -0.3783068 58.37691844 -0.32291877 50.23675025 C-0.20910174 33.4912038 -0.10245873 16.74561983 0 0 Z " fill="#000000" transform="translate(441,264)"/>
<path d="M0 0 C6.27 0 12.54 0 19 0 C19.00808685 1.68240784 19.01617371 3.36481567 19.02450562 5.09820557 C19.10189588 20.93160371 19.18949886 36.76491063 19.28752708 52.59819412 C19.33766474 60.73878345 19.38410752 68.87936264 19.421875 77.02001953 C19.45479963 84.1148003 19.49463343 91.20950273 19.54279006 98.30419707 C19.5680504 102.06133804 19.58983303 105.81842707 19.60334396 109.57563019 C19.61855025 113.76830822 19.64918043 117.96073662 19.68115234 122.15332031 C19.68331253 123.40128891 19.68547272 124.64925751 19.68769836 125.93504333 C19.69886185 127.07645279 19.71002533 128.21786224 19.7215271 129.39385986 C19.72705786 130.38570911 19.73258862 131.37755836 19.73828697 132.39946365 C20.01049063 135.1042411 20.5283717 136.72867132 22 139 C25.97386464 141.2459363 29.67758421 141.27156831 34.17700195 141.31884766 C34.87998917 141.32889328 35.58297638 141.3389389 36.30726624 141.34928894 C38.61759669 141.38003808 40.92781171 141.39713272 43.23828125 141.4140625 C44.84540291 141.43278084 46.45251481 141.45235475 48.05961609 141.4727478 C52.27961465 141.52400481 56.49964505 141.56366484 60.7197876 141.60089111 C65.03006831 141.64097117 69.3402173 141.69204523 73.65039062 141.7421875 C82.10017694 141.83887068 90.55001793 141.92228304 99 142 C99 147.94 99 153.88 99 160 C88.98551377 160.09058784 78.97130239 160.16388092 68.95649815 160.20724869 C64.30555995 160.22806943 59.65491808 160.25628555 55.00415039 160.30175781 C50.51076812 160.34541328 46.0176698 160.36917852 41.52409172 160.37950897 C39.81496655 160.38686515 38.10585585 160.40122972 36.39685249 160.42292023 C19.21004863 160.63225782 19.21004863 160.63225782 12 156 C11.0925 155.4225 10.185 154.845 9.25 154.25 C0.72801156 145.72801156 -0.22086695 135.86370251 -0.24884033 124.25198364 C-0.2380545 122.42641434 -0.2380545 122.42641434 -0.22705078 120.56396484 C-0.22734283 119.25552612 -0.22763489 117.9470874 -0.22793579 116.59899902 C-0.22850528 113.04179713 -0.2168171 109.48473248 -0.20278788 105.92756224 C-0.19021252 102.19867381 -0.18910469 98.4697816 -0.18673706 94.74087524 C-0.18054216 87.69340072 -0.16415853 80.64598888 -0.14403808 73.59854186 C-0.12161682 65.56945101 -0.11067005 57.54035703 -0.10064721 49.51124263 C-0.07979035 33.00745746 -0.04424649 16.50373923 0 0 Z " fill="#000000" transform="translate(52,264)"/>
<path d="M0 0 C18.81 0 37.62 0 57 0 C57 6.27 57 12.54 57 19 C35.22 19 13.44 19 -9 19 C-7 13 -7 13 0 0 Z " fill="#000000" transform="translate(261,158)"/>
<path d="M0 0 C18.81 0 37.62 0 57 0 C57 6.27 57 12.54 57 19 C35.22 19 13.44 19 -9 19 C-7 13 -7 13 0 0 Z " fill="#000000" transform="translate(67,158)"/>
<path d="M0 0 C18.81 0 37.62 0 57 0 C57 6.27 57 12.54 57 19 C35.22 19 13.44 19 -9 19 C-6.03 12.73 -3.06 6.46 0 0 Z " fill="#000000" transform="translate(455,158)"/>
<path d="M0 0 C5.94 0 11.88 0 18 0 C19 1 19 1 19.11352539 4.41821289 C19.11336628 5.93636988 19.10767226 7.45453229 19.09765625 8.97265625 C19.0962413 9.77029892 19.09482635 10.56794159 19.09336853 11.38975525 C19.08775316 13.94737435 19.07519812 16.50490718 19.0625 19.0625 C19.05748698 20.79231645 19.05292373 22.52213426 19.04882812 24.25195312 C19.03862791 28.50136239 19.01905568 32.75058416 19 37 C12.73 37 6.46 37 0 37 C0 24.79 0 12.58 0 0 Z " fill="#000000" transform="translate(441,105)"/>
<path d="M0 0 C5.94 0 11.88 0 18 0 C18 12.21 18 24.42 18 37 C11.73 37 5.46 37 -1 37 C-1.02290896 31.89130189 -1.04283601 26.78278074 -1.05493164 21.67407227 C-1.05997204 19.93480832 -1.0668043 18.19554864 -1.07543945 16.45629883 C-1.08751792 13.96174063 -1.09323108 11.46723827 -1.09765625 8.97265625 C-1.10281754 8.19036148 -1.10797882 7.40806671 -1.11329651 6.60206604 C-1.11349226 4.73432886 -1.06199694 2.86670796 -1 1 C-0.67 0.67 -0.34 0.34 0 0 Z " fill="#000000" transform="translate(53,105)"/>
<path d="M0 0 C5.94 0 11.88 0 18 0 C18 12.21 18 24.42 18 37 C12.06 37 6.12 37 0 37 C0 24.79 0 12.58 0 0 Z " fill="#000000" transform="translate(247,264)"/>
<path d="M0 0 C5.94 0 11.88 0 18 0 C18 12.21 18 24.42 18 37 C12.06 37 6.12 37 0 37 C0 24.79 0 12.58 0 0 Z " fill="#000000" transform="translate(247,105)"/>
</svg>
