<?xml version="1.0" encoding="UTF-8"?>
<svg version="1.1" xmlns="http://www.w3.org/2000/svg" width="128" height="128">
<path d="M0 0 C6.6 0 13.2 0 20 0 C20 28.38 20 56.76 20 86 C23.96 86 27.92 86 32 86 C32 90.62 32 95.24 32 100 C2.63 100 -26.74 100 -57 100 C-57 98.68 -57 97.36 -57 96 C-28.95 96 -0.9 96 28 96 C28 94.02 28 92.04 28 90 C2.26 90 -23.48 90 -50 90 C-50 88.68 -50 87.36 -50 86 C-46.7 86 -43.4 86 -40 86 C-40 66.86 -40 47.72 -40 28 C-43.96 28 -47.92 28 -52 28 C-52 38.89 -52 49.78 -52 61 C-53.32 61 -54.64 61 -56 61 C-56 48.79 -56 36.58 -56 24 C-49.4 24 -42.8 24 -36 24 C-36 44.46 -36 64.92 -36 86 C-33.36 86 -30.72 86 -28 86 C-28 61.58 -28 37.16 -28 12 C-21.4 12 -14.8 12 -8 12 C-8 36.42 -8 60.84 -8 86 C-5.36 86 -2.72 86 0 86 C0 57.62 0 29.24 0 0 Z M4 4 C4 31.06 4 58.12 4 86 C7.96 86 11.92 86 16 86 C16 58.94 16 31.88 16 4 C12.04 4 8.08 4 4 4 Z M-24 16 C-24 39.1 -24 62.2 -24 86 C-20.04 86 -16.08 86 -12 86 C-12 62.9 -12 39.8 -12 16 C-15.96 16 -19.92 16 -24 16 Z " fill="#000000" transform="translate(96,28)"/>
<path d="M0 0 C7.26 0 14.52 0 22 0 C22 7.26 22 14.52 22 22 C20.68 22 19.36 22 18 22 C17.67 17.71 17.34 13.42 17 9 C15.494375 10.423125 13.98875 11.84625 12.4375 13.3125 C-7.29167097 31.44803356 -36.16943207 51.27984847 -64.12109375 50.140625 C-64.74113281 50.09421875 -65.36117187 50.0478125 -66 50 C-66 48.68 -66 47.36 -66 46 C-65.16082031 45.85304688 -65.16082031 45.85304688 -64.3046875 45.703125 C-34.18371066 40.0857081 -10.22993089 25.57098082 12 5 C8.04 4.67 4.08 4.34 0 4 C0 2.68 0 1.36 0 0 Z " fill="#000000" transform="translate(86,0)"/>
<path d="M0 0 C4.5863963 3.74399698 9.15707037 7.7837111 11.0625 13.5 C11.72465149 20.94447461 12.22424434 27.71431415 7.55859375 33.88671875 C3.3705144 38.40284609 -0.82958093 42.13638878 -7.109375 42.87109375 C-14.73980909 43.01270661 -20.19757998 42.82297668 -25.9375 37.5 C-31.0455995 32.36563778 -33.24437056 28.13344821 -33.4375 20.875 C-33.31028371 13.68353788 -31.79990407 8.84763358 -26.9375 3.5 C-20.03410032 -2.72576535 -8.39631547 -4.2265877 0 0 Z M-26.9375 11.6875 C-28.75599074 16.8020052 -28.97754062 22.45256916 -27.2109375 27.62890625 C-24.61184371 32.52069659 -21.16859127 35.75630291 -15.9375 37.5 C-9.05242608 38.23424739 -4.53292184 37.64061216 1.0625 33.5 C5.68480483 28.51277637 6.36927369 24.59353015 6.2734375 18 C5.85026241 12.98459158 3.74404014 9.91113714 0.0625 6.6875 C-9.85888777 -0.54684525 -19.48127595 3.53225494 -26.9375 11.6875 Z " fill="#000000" transform="translate(32.9375,85.5)"/>
<path d="M0 0 C1.32 0 2.64 0 4 0 C4 0.66 4 1.32 4 2 C4.804375 2.144375 5.60875 2.28875 6.4375 2.4375 C9 3 9 3 10 4 C10.04080783 5.99958364 10.04254356 8.00045254 10 10 C8.68 10 7.36 10 6 10 C5.67 9.34 5.34 8.68 5 8 C4.67 9.32 4.34 10.64 4 12 C4.61875 12.12375 5.2375 12.2475 5.875 12.375 C8 13 8 13 10 15 C10.56641942 22.13688469 10.56641942 22.13688469 8.6875 25 C7 26 7 26 4 26 C4 26.66 4 27.32 4 28 C2.68 28 1.36 28 0 28 C0 27.34 0 26.68 0 26 C-0.804375 25.855625 -1.60875 25.71125 -2.4375 25.5625 C-5 25 -5 25 -6 24 C-6.04080783 22.00041636 -6.04254356 19.99954746 -6 18 C-4.68 18 -3.36 18 -2 18 C-1.67 18.66 -1.34 19.32 -1 20 C-0.67 18.68 -0.34 17.36 0 16 C-0.61875 15.87625 -1.2375 15.7525 -1.875 15.625 C-4 15 -4 15 -6 13 C-6.56641942 5.86311531 -6.56641942 5.86311531 -4.6875 3 C-3 2 -3 2 0 2 C0 1.34 0 0.68 0 0 Z M-1 7 C0 11 0 11 0 11 Z M4 17 C5 21 5 21 5 21 Z " fill="#000000" transform="translate(20,92)"/>
<path d="M0 0 C6.6 0 13.2 0 20 0 C20 6.27 20 12.54 20 19 C18.68 19 17.36 19 16 19 C16 14.05 16 9.1 16 4 C12.04 4 8.08 4 4 4 C4 8.95 4 13.9 4 19 C2.68 19 1.36 19 0 19 C0 12.73 0 6.46 0 0 Z " fill="#000000" transform="translate(12,62)"/>
</svg>
